<svg id="Layer_1" data-name="Layer 1" xmlns="http://www.w3.org/2000/svg" viewBox="0 0 465.11 465.11"><defs><style>.cls-1{fill:#3cf;}.cls-2{fill:#fff;}</style></defs><title>Tile Icon</title><rect class="cls-1" width="465.11" height="465.11" rx="50" ry="50"/><path class="cls-2" d="M304.79,305.28a162.13,162.13,0,0,0-15.07,13l-.15.17q-1.51,1.63-3.14,3.13-3.42,3.53-6.63,7.27-3.54,4.8-7.43,9.33a161.74,161.74,0,0,1-77.38,50,168.75,168.75,0,0,0,44.9,6h1c1.67,0,3.32,0,5-.09a150,150,0,0,0,47.38-8.56,121.37,121.37,0,0,0,41.54-25.1,125.27,125.27,0,0,0,28.55-39.8,153.91,153.91,0,0,0,12.73-46.07A160.91,160.91,0,0,0,304.79,305.28Z"/><path class="cls-2" d="M359.45,134.56A120.31,120.31,0,0,0,346,115.3a113.24,113.24,0,0,0-16.23-15.57,130.63,130.63,0,0,0-40.67-21.41A155.42,155.42,0,0,0,240.9,71q-35.47,0-63.81,12.55a142.88,142.88,0,0,0-26,14.86h-.07c-.44.32-.87.66-1.31,1l-1.57,1.18c-1.1.84-2.18,1.7-3.24,2.57l-1.51,1.24c-1.09.91-2.15,1.84-3.2,2.79l-1.33,1.18q-2.19,2-4.28,4.11l-.32.3q-2.58,2.63-5,5.39c-1.34,1.51-2.62,3.07-3.89,4.63l-1.3,1.62h0a156.36,156.36,0,0,0-24.67,45.45Q89,199.46,89,234.07,89,267.82,99.42,297a150.47,150.47,0,0,0,29.86,50.84,131.39,131.39,0,0,0,22.26,19.69,160.87,160.87,0,0,0,92-30.13c-.89,0-1.77.05-2.67.05q-22.93,0-38.94-8.87A74.19,74.19,0,0,1,176,305a102.23,102.23,0,0,1-14.49-33.1A157.21,157.21,0,0,1,157,234.07a169,169,0,0,1,4.54-39.37,110.75,110.75,0,0,1,6.78-20c.54-1.21,1.11-2.41,1.7-3.59,0-.07.07-.13.1-.2.56-1.1,1.12-2.19,1.71-3.27.19-.33.38-.65.56-1,.47-.83.94-1.66,1.43-2.47.71-1.18,1.45-2.35,2.21-3.49a73.5,73.5,0,0,1,26-23.8q16-8.87,38.94-8.87c.71,0,1.42,0,2.12,0h0a70.66,70.66,0,0,1,21.89,4.07,69.85,69.85,0,0,1,20.55,11.46,68.45,68.45,0,0,1,15.15,17.1h0l.12.19a43.79,43.79,0,0,0,37.17,21.22h36.26Q371.13,155.33,359.45,134.56Z"/></svg>