<svg id="Layer_1" data-name="Layer 1" xmlns="http://www.w3.org/2000/svg" viewBox="0 0 410.4 410.4"><defs><style>.cls-1{fill:#fff;}.cls-2{fill:#3cf;}</style></defs><title>Circle Icon</title><circle class="cls-1" cx="205.2" cy="205.2" r="200"/><path class="cls-1" d="M162.55,20.15l-.4.24,1,.78Z"/><path class="cls-1" d="M168.8,47.66l-.35.2.87.67Z"/><path class="cls-2" d="M205.2,0C91.87,0,0,91.87,0,205.2S91.87,410.4,205.2,410.4s205.2-91.87,205.2-205.2S318.53,0,205.2,0ZM108.28,313.4a141.11,141.11,0,0,1-28-47.7,175.28,175.28,0,0,1-9.74-59.08q0-32.48,9.74-60.29a146.61,146.61,0,0,1,23.15-42.66h0c.4-.51.81-1,1.22-1.51,1.19-1.47,2.4-2.93,3.65-4.35q2.3-2.59,4.71-5.06l.3-.28c1.31-1.32,2.65-2.6,4-3.86.41-.38.83-.74,1.24-1.11,1-.89,2-1.76,3-2.62.46-.39.94-.78,1.41-1.16,1-.82,2-1.62,3-2.41l1.47-1.11c.41-.31.81-.63,1.23-.93h.06a134.57,134.57,0,0,1,24.36-13.94Q179.74,53.55,213,53.55a146.1,146.1,0,0,1,45.27,6.9,123,123,0,0,1,38.17,20.1A106.26,106.26,0,0,1,311.7,95.16a112.74,112.74,0,0,1,12.58,18.08q11,19.49,13.8,44.66h-34A41.11,41.11,0,0,1,269.17,138l-.11-.18h0a64.33,64.33,0,0,0-14.21-16A66.33,66.33,0,0,0,215,107.19h0c-.66,0-1.32,0-2,0q-21.53,0-36.54,8.32a68.9,68.9,0,0,0-24.36,22.33c-.72,1.07-1.41,2.17-2.08,3.28-.46.76-.9,1.54-1.34,2.32l-.52.92c-.56,1-1.09,2-1.61,3.07l-.09.18c-.56,1.11-1.09,2.24-1.61,3.38a103.52,103.52,0,0,0-6.35,18.72,158.31,158.31,0,0,0-4.27,37,147.19,147.19,0,0,0,4.27,35.53,95.78,95.78,0,0,0,13.6,31.06,69.54,69.54,0,0,0,24.36,22.12q15,8.34,36.54,8.33c.85,0,1.67,0,2.5-.05a151,151,0,0,1-86.36,28.28A123.15,123.15,0,0,1,108.28,313.4Zm219.65-25.58a117.86,117.86,0,0,1-26.79,37.36,114.14,114.14,0,0,1-39,23.55,140.89,140.89,0,0,1-44.47,8c-1.55,0-3.09.09-4.66.09h-.95a158.09,158.09,0,0,1-42.13-5.6,151.83,151.83,0,0,0,72.62-46.93c2.42-2.83,4.75-5.75,7-8.76q3-3.49,6.23-6.82c1-.94,2-1.91,2.95-2.94l.13-.15a151.64,151.64,0,0,1,81-41A144.39,144.39,0,0,1,327.93,287.82Z"/></svg>