<?xml version="1.0" encoding="utf-8"?>
<!-- Generator: Adobe Illustrator 22.1.0, SVG Export Plug-In . SVG Version: 6.00 Build 0)  -->
<svg version="1.1" id="Layer_1" xmlns="http://www.w3.org/2000/svg" xmlns:xlink="http://www.w3.org/1999/xlink" x="0px" y="0px"
	 viewBox="0 0 913.4 256.3" style="enable-background:new 0 0 913.4 256.3;" xml:space="preserve">
<style type="text/css">
	.st0{fill:#FFFFFF;}
</style>
<path class="st0" d="M587.9,88.7c-4.8-6.3-11.4-11.2-19.7-14.8c-8.4-3.5-19-5.3-32.1-5.3c-10.3,0-20.4,2.3-30.2,7
	c-4.5,2.2-8.7,4.9-12.5,8.3c-5.1,4.6-9.2,10.3-12.3,16.4c-10.6,20.8-26.8,38.4-46.6,50.7v74.1c0,14.2,11.5,25.7,25.7,25.7h23v-93
	c0-18.1,3-31.1,8.9-38.9c5.9-7.9,15.6-11.8,28.8-11.8c11.7,0,19.8,3.6,24.4,10.8c4.6,7.2,6.9,18.1,6.9,32.8v75.1
	c0,13.8,11.2,25.1,25.1,25.1H601V141.7c0-11-1-21-2.9-30C596.1,102.6,592.7,95,587.9,88.7z"/>
<path class="st0" d="M434.5,73.4v60.8c16.9-16.3,29.3-37.3,35.2-60.8C469.7,73.4,434.5,73.4,434.5,73.4z"/>
<path class="st0" d="M666.3,88l-40.8-69.4c-4.7-7.9-13.2-12.8-22.4-12.8h-45.2l77.6,128.8C642.2,116.9,652.8,101,666.3,88z"/>
<path class="st0" d="M764.6,52.4l28-46.5H747c-9.2,0-17.6,4.8-22.3,12.7l-28.3,47.9L675,102.7l0,0l0,0
	c-15.3,20.1-24.9,44.9-26.1,71.8v11.8v39c0,14.2,11.5,25.6,25.6,25.6h28.2v-88.4c0-4.6,1.2-9.1,3.6-13l58.1-96.8L764.6,52.4z"/>
<path class="st0" d="M913.1,130.4c0,0.2-0.1,0.4-0.1,0.5C913,130.7,913.1,130.6,913.1,130.4z"/>
<circle class="st0" cx="774.8" cy="220.4" r="25.6"/>
<path class="st0" d="M861.1,203.2c0.6-1.4,1.2-2.8,1.6-4.3C862.3,200.4,861.8,201.8,861.1,203.2z"/>
<path class="st0" d="M867,233.9c0-0.1,0-0.1,0-0.2l0,0C866.9,233.7,866.9,233.8,867,233.9c1.5,4.2,4,7.8,7.3,10.6
	C871,241.6,868.4,238,867,233.9z"/>
<path class="st0" d="M876.2,246.1C876.2,246.1,876.2,246,876.2,246.1C876.2,246,876.2,246.1,876.2,246.1z"/>
<path class="st0" d="M875.2,245.3c-0.2-0.2-0.4-0.3-0.6-0.4C874.8,245,875,245.1,875.2,245.3z"/>
<path class="st0" d="M815.5,222.2c0.5,0.1,0.9,0.1,1.4,0.2c0.6,0.1,1.3,0.2,1.9,0.2c0.4,0,0.7,0.1,1.1,0.1c0.4,0,0.7,0.1,1.1,0.1
	h0.1c0.5,0,1.1,0.1,1.6,0.1c0.8,0,1.7,0.1,2.5,0.1h0.1c1.8,0,3.5-0.1,5.2-0.2c1.6-0.1,3.2-0.3,4.7-0.5c5.1-0.7,9.3-2.1,12.6-4.1
	c5.3-3.2,9.1-7,11.7-11.5c0.6-1.1,1.1-2.2,1.6-3.3c-0.5,1.1-1,2.2-1.7,3.3c-2.5,4.5-6.4,8.3-11.7,11.5c-3.3,2-7.5,3.4-12.6,4.1
	c-1.5,0.2-3,0.4-4.7,0.5s-3.4,0.2-5.2,0.2h-0.1c-0.8,0-1.7,0-2.5-0.1c-0.5,0-1.1,0-1.6-0.1h-0.1c-0.4,0-0.8,0-1.1-0.1
	c-0.4,0-0.7-0.1-1.1-0.1c-0.6-0.1-1.2-0.2-1.9-0.2C816.4,222.4,815.9,222.3,815.5,222.2c-0.5-0.1-0.9-0.2-1.4-0.3
	c-0.3,0-0.5-0.1-0.7-0.2l0,0c0.3,0.1,0.5,0.1,0.8,0.2C814.6,222.1,815,222.2,815.5,222.2z"/>
<path class="st0" d="M913.4,188.4v22.9v39.5H891l0,0c-5.5,0-10.6-1.8-14.7-4.7c4.1,2.9,9.2,4.7,14.6,4.7h0.4h22.2v-39.5v-3.7v-10.4
	L913.4,188.4v-4.3v-20.6l0,0v16.4V188.4z"/>
<path class="st0" d="M862.7,198.9c0.1-0.3,0.2-0.6,0.3-0.9C862.9,198.3,862.8,198.6,862.7,198.9z"/>
<path class="st0" d="M861,203.4c0-0.1,0.1-0.1,0.1-0.2C861.1,203.3,861.1,203.4,861,203.4z"/>
<path class="st0" d="M876.1,246c-0.3-0.2-0.6-0.5-1-0.7C875.5,245.5,875.8,245.8,876.1,246z"/>
<path class="st0" d="M874.6,244.8c-0.1-0.1-0.2-0.2-0.4-0.3C874.4,244.6,874.5,244.7,874.6,244.8z"/>
<path class="st0" d="M159.1,196.1l-0.1,0.1c-0.8,0.9-1.6,1.7-2.5,2.5c-1.8,1.9-3.6,3.8-5.3,5.8c-1.9,2.5-3.8,5-5.9,7.4
	c-16,18.6-37.2,32.6-61.4,39.7c11,3.1,22.9,4.7,35.6,4.7c0.3,0,0.5,0,0.8,0c1.3,0,2.6,0,3.9-0.1c13.6-0.4,26.1-2.6,37.6-6.8
	c12.6-4.6,23.6-11.2,32.9-19.9c9.4-8.7,16.9-19.2,22.6-31.6c5.1-11,8.4-23.2,10.1-36.5c-21,3.5-40.3,12-56.5,24.4
	C166.9,189,162.9,192.5,159.1,196.1z"/>
<path class="st0" d="M120.4,211.4c-12.1,0-22.4-2.3-30.9-7s-15.3-10.9-20.6-18.7s-9.1-16.5-11.5-26.2s-3.6-19.7-3.6-30
	c0-10.7,1.2-21.2,3.6-31.2c1.3-5.6,3.1-10.9,5.4-15.8c0.4-1,0.9-1.9,1.4-2.8c0-0.1,0.1-0.1,0.1-0.2c0.4-0.9,0.9-1.7,1.4-2.6
	c0.1-0.3,0.3-0.5,0.4-0.8c0.4-0.7,0.7-1.3,1.1-2c0.6-0.9,1.1-1.9,1.8-2.8c5.3-7.9,12.1-14.2,20.6-18.9s18.8-7,30.9-7
	c0.6,0,1.1,0,1.7,0l0,0c6,0.2,11.8,1.2,17.4,3.2c6.1,2.2,11.5,5.2,16.3,9.1s8.8,8.4,12,13.6l0,0c0,0.1,0.1,0.1,0.1,0.2
	c6.4,10.3,17.4,16.8,29.5,16.8h28.8c-1.6-14.2-5.5-26.8-11.7-37.7c-3.1-5.5-6.7-10.6-10.6-15.3c-3.9-4.5-8.2-8.7-12.9-12.3
	c-9.5-7.4-20.2-13.1-32.3-17c-12-3.9-24.8-5.8-38.3-5.8c-18.8,0-35.6,3.3-50.6,9.9c-7.5,3.3-14.3,7.2-20.6,11.8c0,0,0,0-0.1,0
	c-0.4,0.3-0.7,0.5-1,0.8c-0.4,0.3-0.8,0.6-1.2,0.9c-0.9,0.7-1.7,1.3-2.6,2c-0.4,0.3-0.8,0.7-1.2,1c-0.9,0.7-1.7,1.5-2.5,2.2
	c-0.3,0.3-0.7,0.6-1.1,0.9c-1.2,1.1-2.3,2.1-3.4,3.3c-0.1,0-0.2,0-0.3,0.1c-1.4,1.4-2.7,2.8-4,4.3c-1.1,1.2-2.1,2.4-3.1,3.7
	c-0.3,0.4-0.7,0.8-1,1.3l0,0l0,0C19.5,52.9,13,64.9,8.2,78.4C2.7,94.1,0,111.1,0,129.4c0,17.8,2.7,34.5,8.2,49.9
	s13.4,28.9,23.7,40.3c5.3,5.9,11.2,11.1,17.7,15.6c27.2-0.3,52.4-9.1,73-23.9C121.8,211.3,121.1,211.4,120.4,211.4z"/>
<path class="st0" d="M913.4,126.2c0,1.4-0.1,2.8-0.4,4.2C913.3,129,913.5,127.6,913.4,126.2z"/>
<path class="st0" d="M913,130.9c0,0.1,0,0.1,0,0.2C913,131,913,131,913,130.9z"/>
<path class="st0" d="M906.2,93.1c-4.8-6.5-11-11.6-18.5-15.3c-7.5-3.7-15.9-6.1-25-7.4c-4.6-0.6-9.1-1.1-13.6-1.4
	c-1.1-0.1-2.3-0.1-3.4-0.2c-3.4-0.2-6.7-0.3-10.1-0.3c-2.4,0-4.8,0.1-7.2,0.2c-7.4,0.4-14.7,1.3-22,2.7c-9.7,1.9-18.5,5.2-26.2,9.8
	c-7.8,4.6-14.2,10.6-19.2,18.2c-5,7.6-7.9,17-8.6,28.5h30.4c9.3,0,17.6-5.4,22-13.6c1.5-2.9,3.5-5.2,5.9-7
	c4.8-3.6,11.2-5.6,19.1-6.1c1.1-0.1,2.2-0.1,3.4-0.1c2.2,0,4.3,0.1,6.3,0.2c2.1,0.1,4.1,0.4,6,0.6c3.8,0.6,7.1,1.7,10,3.4
	c2.9,1.7,5.1,4.1,6.9,7.2c1.7,3.1,2.6,7.3,2.6,12.5c0.2,5-1.3,8.9-4.5,11.5s-7.6,4.6-13,6c-5.5,1.4-11.8,2.4-18.9,3.1
	c-7.1,0.7-14.3,1.6-21.6,2.7c-7.3,1.1-14.6,2.7-21.8,4.6c-4.7,1.3-9,3-13.1,5c-2.1,1.1-4.2,2.3-6.2,3.7c-5.6,3.9-10.2,9.1-13.7,15.6
	c-2.4,4.4-4,9.6-4.7,15.6c7-7.1,16.7-11.6,27.5-11.6c8.6,0,16.6,2.8,23,7.6c0,0,0-0.1,0.1-0.1c1.6-3,3.7-5.4,6.3-7.4
	c2.6-1.9,5.7-3.5,9.3-4.6c3.5-1.1,7.2-2.1,10.8-2.8c3.9-0.7,7.8-1.2,11.7-1.7c0,0,10-1.4,22.8-4.9c14.8-4,33.4-10.8,44.7-21.2
	c4.8-4.4,8.2-9.5,9.5-15.4c0-0.1,0-0.1,0-0.2c0-0.2,0.1-0.4,0.1-0.5c0.2-1.4,0.4-2.8,0.4-4.2V119C913.4,108.3,911,99.7,906.2,93.1z"
	/>
<path class="st0" d="M245.8,181.6L245.8,181.6L245.8,181.6z"/>
<path class="st0" d="M245,183.9c0-0.1,0.1-0.2,0.1-0.3C245.1,183.7,245,183.8,245,183.9z"/>
<path class="st0" d="M243.8,188.4c0-0.1,0-0.2,0.1-0.3C243.8,188.2,243.8,188.3,243.8,188.4z"/>
<path class="st0" d="M244.3,186.1c0-0.1,0.1-0.2,0.1-0.3C244.4,185.9,244.4,186,244.3,186.1z"/>
<path class="st0" d="M244.4,185.8c0.2-0.7,0.4-1.3,0.6-1.9C244.8,184.5,244.6,185.1,244.4,185.8z"/>
<path class="st0" d="M243.8,188.2c0.2-0.7,0.3-1.4,0.5-2C244.2,186.8,244,187.5,243.8,188.2z"/>
<path class="st0" d="M243,193.1L243,193.1c0.2-1.6,0.5-3.2,0.8-4.7C243.5,189.9,243.2,191.5,243,193.1z"/>
<path class="st0" d="M245.1,183.6c0.2-0.7,0.5-1.4,0.7-2C245.6,182.3,245.3,182.9,245.1,183.6z"/>
<path class="st0" d="M299.9,181.7c2.6-1.9,5.7-3.5,9.3-4.6c3.5-1.1,7.2-2.1,10.8-2.8c3.9-0.7,7.8-1.2,11.7-1.7c0,0,10-1.4,22.8-4.9
	c0.1,0,0.1,0,0.2-0.1c14.7-4,33-10.7,44.2-20.9c6.4-4.8,10.2-12.3,10.2-20.3V119c0-6.7-0.9-12.6-2.8-17.7c-1.1-3-2.6-5.8-4.4-8.2
	c-4.8-6.5-11-11.6-18.5-15.3c-7.5-3.7-15.9-6.1-25-7.4c-4.6-0.6-9.1-1.1-13.6-1.4c-1.1-0.1-2.3-0.1-3.4-0.2
	c-3.4-0.2-6.7-0.3-10.1-0.3c-2.4,0-4.8,0.1-7.2,0.2c-7.4,0.4-14.7,1.3-22,2.7c-9.7,1.9-18.5,5.2-26.2,9.8
	c-7.8,4.6-14.2,10.6-19.2,18.2s-7.9,17-8.6,28.5l0,0l0,0h30.6c9.2,0,17.4-5.3,21.7-13.4c1.5-2.9,3.5-5.3,6-7.2
	c4.8-3.6,11.2-5.6,19.1-6.1c1.1-0.1,2.2-0.1,3.4-0.1c2.2,0,4.3,0.1,6.3,0.2c2.1,0.1,4.1,0.4,6,0.6c3.8,0.6,7.1,1.7,10,3.4
	c2.9,1.7,5.1,4.1,6.9,7.2c0.4,0.8,0.8,1.6,1.1,2.5c1,2.7,1.4,6.1,1.4,10c0.2,5-1.3,8.9-4.5,11.5c-3.2,2.6-7.6,4.6-13,6
	c-5.5,1.4-11.8,2.4-18.9,3.1c-7.1,0.7-14.3,1.6-21.6,2.7c-7.3,1.1-14.6,2.7-21.8,4.6c-4.7,1.3-9,3-13.1,5c-2.1,1.1-4.2,2.3-6.2,3.7
	c-5.6,3.9-10.2,9.1-13.7,15.6c-0.7,1.3-1.3,2.6-1.9,4l0,0c-0.3,0.7-0.5,1.3-0.7,2c0,0.1-0.1,0.2-0.1,0.3c-0.2,0.6-0.4,1.3-0.6,1.9
	c0,0.1-0.1,0.2-0.1,0.3c-0.2,0.7-0.3,1.3-0.5,2c0,0.1,0,0.2-0.1,0.3c-0.3,1.5-0.6,3.1-0.8,4.7c-0.1,1-0.2,1.9-0.3,2.9
	c-0.2,2.1-0.3,4.2-0.3,6.4c0,9.2,1.5,17.1,4.6,23.7c3.1,6.6,7.4,12.1,12.9,16.5c5.5,4.3,11.9,7.5,19.2,9.6c6.6,1.8,13.6,2.9,21.1,3
	c0.8,0,1.6,0,2.4,0c2.1,0,4.1-0.1,6.2-0.2c0.7,0,1.4-0.1,2.1-0.1c2.1-0.2,4.2-0.4,6.4-0.6c6-0.8,12-2.1,17.8-3.9
	c10.5-3.2,19.6-8.7,27.3-16.7l0.1-0.1l0,0c0,0.1,0,0.1,0,0.2c3.5,9.8,12.9,16.9,23.9,17h0.4H409v-39.5v-3.7v-10.4v-8.9v-4.4v-20.6
	c-14.1,3.6-27.3,9.6-39.1,17.5c-0.2,0.2-0.5,0.3-0.7,0.5c-5.7,4-9.8,10.3-10.7,17.6c0.1-0.5,0.1-1,0.2-1.5c-0.8,3.1-2.1,6.1-3.8,9.2
	c-2.5,4.5-6.4,8.3-11.7,11.5c-3.3,2-7.5,3.4-12.6,4.1c-1.5,0.2-3,0.4-4.7,0.5s-3.4,0.2-5.2,0.2h-0.1c-0.8,0-1.7,0-2.5-0.1
	c-0.5,0-1.1,0-1.6-0.1h-0.1c-0.4,0-0.8,0-1.1-0.1c-0.4,0-0.7-0.1-1.1-0.1c-0.6-0.1-1.2-0.2-1.9-0.2c-0.5-0.1-0.9-0.1-1.4-0.2
	c-0.5-0.1-0.9-0.1-1.4-0.2c-3.7-0.7-6.9-1.9-9.6-3.6c-2.7-1.7-4.9-4.1-6.5-7c-1.6-3-2.4-6.6-2.4-11c0-4.6,0.8-8.3,2.4-11.3l0,0
	C295.1,186.1,297.2,183.6,299.9,181.7z"/>
<path class="st0" d="M874.4,181c-0.2,0.2-0.5,0.3-0.7,0.5c-5.2,3.6-9,9.1-10.4,15.6l0,0l-0.1,0.5c0,0.2-0.1,0.3-0.1,0.5
	c-0.1,0.3-0.2,0.6-0.3,0.9c-0.4,1.4-1,2.9-1.6,4.3c0,0.1-0.1,0.1-0.1,0.2c-0.5,1.1-1,2.2-1.6,3.3c-2.5,4.5-6.4,8.3-11.7,11.5
	c-3.3,2-7.5,3.4-12.6,4.1c-1.5,0.2-3,0.4-4.7,0.5s-3.4,0.2-5.2,0.2h-0.1c-0.8,0-1.7,0-2.5-0.1c-0.5,0-1.1,0-1.6-0.1H821
	c-0.4,0-0.8,0-1.1-0.1c-0.4,0-0.7-0.1-1.1-0.1c-0.6-0.1-1.2-0.2-1.9-0.2c-0.5-0.1-0.9-0.1-1.4-0.2c-0.5-0.1-0.9-0.1-1.4-0.2
	c-0.3,0-0.5-0.1-0.8-0.2c-0.7,14.1-8.9,26.2-20.7,32.3c3.9,0.6,7.9,1,12,1.1c0.8,0,1.6,0,2.4,0c2.1,0,4.1-0.1,6.2-0.2
	c0.7,0,1.4-0.1,2.1-0.1c2.1-0.2,4.2-0.4,6.4-0.7c6-0.8,12-2.1,17.8-3.9c10.5-3.2,19.6-8.7,27.3-16.7c0,0,0,0,0.1-0.1l0,0l0,0l0,0
	c0,0.1,0,0.1,0,0.2c1.5,4.1,4,7.8,7.3,10.6c0.1,0.1,0.2,0.2,0.4,0.3c0.2,0.2,0.4,0.3,0.6,0.4c0.3,0.3,0.6,0.5,1,0.7
	c0,0,0.1,0,0.1,0.1c4.2,3,9.2,4.7,14.7,4.7h0.1h22.4v-39.5v-22.9v-8.5v-16.4C899.3,167.1,886.2,173.1,874.4,181z"/>
</svg>
