<svg id="Layer_1" data-name="Layer 1" xmlns="http://www.w3.org/2000/svg" viewBox="0 0 2749.16 500"><defs><style>.cls-1{fill:#3cf;}.cls-2{opacity:0.5;}</style></defs><title>CanYa_CanYaDAO</title><path class="cls-1" d="M1709.4,480.05l-.18-.12Z"/><path class="cls-1" d="M1707.33,478.47c-.37-.3-.75-.57-1.12-.88C1706.58,477.9,1707,478.17,1707.33,478.47Z"/><path class="cls-1" d="M1709.22,479.93c-.65-.47-1.27-1-1.89-1.46C1708,479,1708.57,479.46,1709.22,479.93Z"/><path class="cls-1" d="M1706.21,477.59c-.24-.2-.46-.42-.7-.63C1705.75,477.17,1706,477.39,1706.21,477.59Z"/><path class="cls-1" d="M1781.29,254.38c-.06.35-.11.69-.17,1C1781.18,255.07,1781.23,254.73,1781.29,254.38Z"/><path class="cls-1" d="M1782,246.19a50.57,50.57,0,0,1-.69,8.19A45.88,45.88,0,0,0,1782,246.19Z"/><path class="cls-1" d="M1781.12,255.41c0,.12-.06.24-.08.35C1781.07,255.65,1781.09,255.53,1781.12,255.41Z"/><path class="cls-1" d="M1146.91,173q-14.06-18.4-38.49-28.79t-62.58-10.37a135.56,135.56,0,0,0-58.9,13.72,101.86,101.86,0,0,0-24.31,16.22,109.57,109.57,0,0,0-24,32,251.3,251.3,0,0,1-90.94,98.87V439.17a50.12,50.12,0,0,0,50.12,50.12h44.93V307.9q0-52.87,17.4-76t56.23-23.1q34.14,0,47.52,21.09t13.39,63.92V440.41a48.89,48.89,0,0,0,48.88,48.88h46.16V276.44q0-32.13-5.69-58.57T1146.91,173Z"/><path class="cls-1" d="M847.71,143.24V261.83a249.88,249.88,0,0,0,68.62-118.59Z"/><path class="cls-1" d="M1299.8,171.68,1220.13,36.34a50.66,50.66,0,0,0-43.67-25H1088.3l151.36,251.3A250.43,250.43,0,0,1,1299.8,171.68Z"/><path class="cls-1" d="M1491.57,102.18l54.56-90.8h-89a50.57,50.57,0,0,0-43.51,24.8l-55.3,93.39-41.77,70.53,0,0h0a248.87,248.87,0,0,0-50.87,140v99.09a50,50,0,0,0,50,50h55.06V316.89a49.3,49.3,0,0,1,7-25.4l113.44-188.78Z"/><circle class="cls-1" cx="1511.54" cy="429.93" r="50.03"/><path class="cls-1" d="M1679.91,396.46a72.49,72.49,0,0,0,3.14-8.35A72.49,72.49,0,0,1,1679.91,396.46Z"/><path class="cls-1" d="M1691.29,456.21c0-.13,0-.26,0-.4l0,0,0,.41A50.22,50.22,0,0,0,1705.51,477,50.19,50.19,0,0,1,1691.29,456.21Z"/><path class="cls-1" d="M1590.87,433.53c.9.18,1.8.29,2.69.41l3.66.47c.7.09,1.41.14,2.12.19s1.46.13,2.2.15a.39.39,0,0,0,.26,0c1,.09,2.06.15,3.1.18,1.63.05,3.25.11,4.88.11h.2c3.51,0,6.87-.11,10.1-.32s6.24-.54,9.15-1c9.86-1.44,18-4.11,24.52-8.08,10.27-6.23,17.83-13.72,22.77-22.42,1.19-2.12,2.23-4.25,3.2-6.39-1,2.13-2,4.25-3.23,6.36q-7.4,13-22.77,22.42c-6.47,4-14.66,6.63-24.52,8.08-2.91.43-6,.76-9.15,1s-6.59.32-10.1.32h-.2c-1.62,0-3.25-.06-4.87-.11-1.05,0-2.06-.09-3.11-.18a.39.39,0,0,1-.26,0c-.74,0-1.48-.1-2.2-.15s-1.41-.1-2.12-.19l-3.65-.47c-.9-.12-1.8-.23-2.7-.41s-1.8-.29-2.7-.46c-.5-.1-1-.23-1.45-.33v0c.5.11,1,.24,1.48.34C1589.07,433.24,1590,433.39,1590.87,433.53Z"/><path class="cls-1" d="M1782,367.55v121.7h-43.81a49.67,49.67,0,0,1-28.77-9.2,49.71,49.71,0,0,0,28.55,9.23H1782V319h0v48.6Z"/><path class="cls-1" d="M1683.05,388.11c.18-.59.37-1.19.53-1.78C1683.42,386.92,1683.23,387.52,1683.05,388.11Z"/><path class="cls-1" d="M1679.72,396.89c.07-.14.13-.29.19-.43C1679.85,396.6,1679.79,396.75,1679.72,396.89Z"/><path class="cls-1" d="M310.46,382.61c-.07.08-.14.17-.22.25-1.56,1.7-3.19,3.3-4.86,4.85q-5.29,5.46-10.26,11.24-5.49,7.44-11.49,14.44a250.33,250.33,0,0,1-119.71,77.37q32.16,9,69.46,9.22l1.56,0c2.59,0,5.13-.08,7.68-.15q39.7-1.07,73.31-13.24a187.73,187.73,0,0,0,64.26-38.82q27.44-25.43,44.17-61.58,14.89-32.18,19.7-71.27a249,249,0,0,0-110.28,47.57A252.2,252.2,0,0,0,310.46,382.61Z"/><path class="cls-1" d="M234.94,412.32q-35.49,0-60.24-13.73a114.73,114.73,0,0,1-40.16-36.47,158.21,158.21,0,0,1-22.43-51.21,243.54,243.54,0,0,1-7-58.57,261.86,261.86,0,0,1,7-60.91,172.12,172.12,0,0,1,10.49-30.87q1.28-2.82,2.64-5.56l.15-.31c.86-1.7,1.74-3.39,2.65-5.05.28-.52.58-1,.87-1.52.72-1.28,1.44-2.57,2.2-3.83q1.66-2.74,3.43-5.4a113.62,113.62,0,0,1,40.16-36.82q24.75-13.71,60.24-13.72c1.1,0,2.19,0,3.28.07h0a109.36,109.36,0,0,1,65.66,24,105.79,105.79,0,0,1,23.43,26.44h0l.19.3C339.89,159.3,361.37,172,385,172h56.1q-4.69-41.49-22.76-73.63A186.49,186.49,0,0,0,397.61,68.6a175,175,0,0,0-25.12-24.09,202.16,202.16,0,0,0-62.92-33.13A241,241,0,0,0,234.94,0Q180,0,136.21,19.41a222,222,0,0,0-40.16,23H96c-.69.5-1.35,1-2,1.53l-2.43,1.83q-2.53,2-5,4c-.79.64-1.57,1.27-2.34,1.92-1.68,1.41-3.32,2.85-5,4.31-.68.62-1.38,1.21-2,1.83-2.26,2.08-4.47,4.19-6.63,6.37l-.49.47Q66,68.68,62.25,73c-2.07,2.34-4,4.75-6,7.17-.68.83-1.36,1.66-2,2.5h0a241.85,241.85,0,0,0-38.16,70.31Q0,198.8,0,252.34q0,52.21,16.06,97.39t46.19,78.65a203.72,203.72,0,0,0,34.44,30.47,249,249,0,0,0,142.38-46.61C237.7,412.27,236.33,412.32,234.94,412.32Z"/><path class="cls-1" d="M1767.94,181.68a96.66,96.66,0,0,0-36.17-29.78,161.92,161.92,0,0,0-48.84-14.39q-13.41-1.81-26.6-2.75c-2.2-.15-4.41-.29-6.61-.41q-9.88-.53-19.67-.52c-4.7,0-9.42.12-14.12.35a294,294,0,0,0-42.87,5.33,163.15,163.15,0,0,0-51.19,19.09,114,114,0,0,0-37.48,35.47q-14.75,22.11-16.73,55.57H1527c18.2,0,34.39-10.51,43-26.55a40.74,40.74,0,0,1,11.49-13.62q14.05-10.53,37.33-11.83c2.15-.15,4.32-.21,6.58-.21,4.24,0,8.36.15,12.3.41s7.95.7,11.72,1.25a53.25,53.25,0,0,1,19.43,6.7,36.62,36.62,0,0,1,13.37,14.07q5,9,5,24.42.66,14.75-8.7,22.42t-25.44,11.72a258.57,258.57,0,0,1-36.8,6q-20.76,2-42.18,5.34a397.59,397.59,0,0,0-42.49,9,126,126,0,0,0-25.49,9.84,111,111,0,0,0-12,7.21q-16.41,11.4-26.77,30.46c-4.63,8.56-7.73,18.71-9.23,30.4a75,75,0,0,1,98.47-7.75l.12-.24a43.37,43.37,0,0,1,12.38-14.38,62.78,62.78,0,0,1,18.07-9,172.38,172.38,0,0,1,21.09-5.37q11.36-2,22.77-3.33a418.54,418.54,0,0,0,44.51-9.59c29-7.84,65.24-21,87.11-41.27,9.36-8.67,16.08-18.63,18.44-30,0-.11,0-.23.08-.35.06-.34.11-.68.17-1a50.57,50.57,0,0,0,.69-8.19V232.24Q1782,200.79,1767.94,181.68Z"/><path class="cls-1" d="M479.58,354.27a.59.59,0,0,0,0-.08A.59.59,0,0,1,479.58,354.27Z"/><path class="cls-1" d="M478,358.69c.05-.16.1-.33.16-.49C478.1,358.36,478.05,358.53,478,358.69Z"/><path class="cls-1" d="M475.59,367.58l.12-.51Z"/><path class="cls-1" d="M476.68,363.1l.18-.65Z"/><path class="cls-1" d="M476.86,362.45c.36-1.28.74-2.53,1.14-3.76C477.6,359.92,477.22,361.17,476.86,362.45Z"/><path class="cls-1" d="M475.71,367.07c.3-1.35.62-2.67,1-4C476.33,364.4,476,365.72,475.71,367.07Z"/><path class="cls-1" d="M474,376.75l0,0c.41-3.16.93-6.22,1.57-9.15C475,370.52,474.41,373.57,474,376.75Z"/><path class="cls-1" d="M478.16,358.2c.45-1.34.92-2.65,1.42-3.93C479.08,355.55,478.61,356.86,478.16,358.2Z"/><path class="cls-1" d="M585,354.38a62.53,62.53,0,0,1,18.07-9A171.77,171.77,0,0,1,624.13,340q11.36-2,22.77-3.33a418,418,0,0,0,44.51-9.59l.43-.12c28.67-7.8,64.38-20.81,86.19-40.72a49.49,49.49,0,0,0,19.88-39.59V232.27q0-19.67-5.48-34.49a65.14,65.14,0,0,0-8.57-16.1,96.58,96.58,0,0,0-36.17-29.78,161.92,161.92,0,0,0-48.84-14.39q-13.4-1.81-26.6-2.75c-2.2-.15-4.41-.29-6.61-.41q-9.89-.53-19.67-.52c-4.69,0-9.42.12-14.12.35A294,294,0,0,0,589,139.51a163.25,163.25,0,0,0-51.19,19.09,114.19,114.19,0,0,0-37.48,35.47q-14.74,22.11-16.73,55.57h0v0h59.78c17.91,0,34-10.28,42.29-26.14a41,41,0,0,1,11.71-14Q611.42,199,634.7,197.67c2.15-.14,4.32-.2,6.59-.2,4.23,0,8.35.14,12.29.41s7.95.69,11.72,1.24a53.18,53.18,0,0,1,19.43,6.7,36.86,36.86,0,0,1,13.38,14.07,31.83,31.83,0,0,1,2.18,4.9q2.82,8,2.82,19.49.66,14.75-8.7,22.42T669,278.42a258.57,258.57,0,0,1-36.8,6q-20.76,2-42.18,5.34a398.11,398.11,0,0,0-42.49,9A126.18,126.18,0,0,0,522,308.68a111,111,0,0,0-12,7.21,87.1,87.1,0,0,0-26.77,30.46,71.19,71.19,0,0,0-3.61,7.84.59.59,0,0,1,0,.08c-.5,1.28-1,2.59-1.42,3.93-.06.16-.11.33-.16.49-.4,1.23-.78,2.48-1.14,3.76l-.18.65c-.35,1.3-.67,2.62-1,4l-.12.51c-.64,2.93-1.16,6-1.57,9.15-.24,1.86-.45,3.76-.61,5.7q-.53,6-.53,12.47,0,26.81,9,46.21A87.38,87.38,0,0,0,507,473.24,106,106,0,0,0,544.5,492a168.16,168.16,0,0,0,41.18,5.95c1.57,0,3.14.05,4.73.05q6,0,12-.32l4-.26q6.24-.45,12.41-1.27a215.63,215.63,0,0,0,34.75-7.52A123.62,123.62,0,0,0,706.92,456l.15-.15.09-.08,0,.4a50,50,0,0,0,46.66,33.07h44.06V319a248.33,248.33,0,0,0-76.18,34.1l-1.45,1a50.07,50.07,0,0,0-20.95,34.3c.13-1,.27-1.95.43-2.9a75.19,75.19,0,0,1-7.34,17.87Q685,416.33,669.65,425.7c-6.47,4-14.66,6.64-24.52,8.08-2.91.43-6,.76-9.15,1s-6.59.32-10.1.32h-.2c-1.62,0-3.25-.06-4.87-.11-1,0-2.06-.09-3.1-.18a.42.42,0,0,1-.27,0c-.74,0-1.48-.09-2.2-.15s-1.41-.1-2.11-.19l-3.66-.47c-.9-.12-1.8-.23-2.7-.41s-1.8-.29-2.7-.46a53.23,53.23,0,0,1-18.73-7A36,36,0,0,1,572.6,412.3c-3.13-5.77-4.67-12.93-4.67-21.4,0-8.93,1.54-16.28,4.67-22.1v0A43.4,43.4,0,0,1,585,354.38Z"/><path class="cls-1" d="M1705.82,353.05l-1.44,1a50.09,50.09,0,0,0-20.24,30.35h0l-.28,1.05c-.08.31-.19.61-.28.92-.16.59-.35,1.19-.53,1.78a72.49,72.49,0,0,1-3.14,8.35c-.06.14-.12.29-.19.43-1,2.14-2,4.27-3.2,6.39-4.94,8.7-12.5,16.19-22.77,22.42-6.47,4-14.66,6.64-24.52,8.08-2.91.43-6,.76-9.15,1s-6.59.32-10.1.32h-.2c-1.63,0-3.25-.06-4.88-.11-1,0-2.05-.09-3.1-.18a.39.39,0,0,1-.26,0c-.74,0-1.48-.09-2.2-.15s-1.42-.1-2.12-.19l-3.66-.47c-.89-.12-1.79-.23-2.69-.41s-1.8-.29-2.7-.46c-.51-.1-1-.23-1.48-.34a75,75,0,0,1-40.36,63,178.33,178.33,0,0,0,23.42,2.11c1.57,0,3.13.06,4.73.06,4,0,8-.12,12-.32l4-.26q6.23-.45,12.41-1.27a215.86,215.86,0,0,0,34.75-7.52A123.62,123.62,0,0,0,1691,456l.14-.14.09-.09v.05l0,0c0,.14,0,.27,0,.4A50.19,50.19,0,0,0,1705.51,477c.24.21.46.43.7.63s.75.58,1.12.88c.62.49,1.24,1,1.89,1.46l.18.12a49.67,49.67,0,0,0,28.77,9.2H1782V319A248.8,248.8,0,0,0,1705.82,353.05Z"/><g class="cls-2"><path class="cls-1" d="M1841,5.59h120.4q45.31,0,80.41,18T2096.29,74q19.39,32.45,19.39,74.49t-19.39,74.49q-19.38,32.44-54.49,50.41t-80.41,18H1841ZM1959,255.8q34.68,0,61-13.47t40.61-37.76q14.28-24.27,14.29-56.12t-14.29-56.12Q2046.29,68,2020,54.57T1959,41.1H1881.8V255.8Z"/><path class="cls-1" d="M2356.09,219.88H2204.25l-31.43,71.43h-42L2260.17,5.59h40.41l129.8,285.72h-42.86Zm-14.29-32.65-61.63-140-61.63,140Z"/><path class="cls-1" d="M2519.77,275.59a140.24,140.24,0,0,1-54.5-52.44q-19.8-33.47-19.79-74.7t19.79-74.69a140.26,140.26,0,0,1,54.5-52.45q34.68-19,78-19,42.86,0,77.55,19a139.32,139.32,0,0,1,54.28,52.24q19.59,33.27,19.6,74.9t-19.6,74.9a139.25,139.25,0,0,1-54.28,52.24q-34.7,19-77.55,19Q2554.46,294.57,2519.77,275.59ZM2654.26,244a104.78,104.78,0,0,0,39.59-39.39q14.47-25.09,14.49-56.12t-14.49-56.12a104.85,104.85,0,0,0-39.59-39.39q-25.11-14.28-56.53-14.29t-56.94,14.29a103.91,103.91,0,0,0-40,39.39q-14.51,25.1-14.49,56.12t14.49,56.12a103.84,103.84,0,0,0,40,39.39q25.5,14.29,56.94,14.29T2654.26,244Z"/></g></svg>