<svg id="Layer_1" data-name="Layer 1" xmlns="http://www.w3.org/2000/svg" viewBox="0 0 1709.46 262.24"><defs><style>.cls-1{fill:#3cf;}.cls-2{fill:#919d9d;}</style></defs><title>CanAutomate </title><path class="cls-1" d="M587.91,94.63q-7.21-9.43-19.73-14.75T536.1,74.56a69.6,69.6,0,0,0-30.2,7,52.29,52.29,0,0,0-12.45,8.32,56.1,56.1,0,0,0-12.3,16.4A128.85,128.85,0,0,1,434.54,157v74.06a25.69,25.69,0,0,0,25.69,25.69h23v-93q0-27.11,8.92-38.94T521,113q17.5,0,24.36,10.81t6.86,32.76v75.13a25.06,25.06,0,0,0,25.06,25.06h23.66V147.64a143.29,143.29,0,0,0-2.91-30A57.32,57.32,0,0,0,587.91,94.63Z"/><path class="cls-1" d="M434.54,79.36v60.8a128.12,128.12,0,0,0,35.17-60.8Z"/><path class="cls-1" d="M159.14,202.07l-.11.13c-.8.87-1.64,1.68-2.49,2.48-1.81,1.87-3.57,3.79-5.26,5.76q-2.82,3.81-5.89,7.4A128.22,128.22,0,0,1,84,257.5a133.45,133.45,0,0,0,35.61,4.73h.8c1.33,0,2.63,0,3.94-.08A118.65,118.65,0,0,0,162,255.38a96.45,96.45,0,0,0,32.93-19.9,99.46,99.46,0,0,0,22.65-31.57,121.74,121.74,0,0,0,10.09-36.53,127.95,127.95,0,0,0-68.48,34.69Z"/><path class="cls-1" d="M120.43,217.29q-18.2,0-30.88-7A58.93,58.93,0,0,1,69,191.56a81,81,0,0,1-11.49-26.25,124.79,124.79,0,0,1-3.6-30,134.16,134.16,0,0,1,3.6-31.22,88.21,88.21,0,0,1,5.37-15.83c.44-1,.89-1.91,1.36-2.85a1.09,1.09,0,0,1,.08-.15c.44-.88.89-1.74,1.35-2.6l.45-.77c.37-.66.74-1.32,1.13-2C67.78,79,68.36,78,69,77.13A58.35,58.35,0,0,1,89.55,58.26q12.69-7,30.88-7l1.68,0h0a56.17,56.17,0,0,1,33.66,12.32,54.5,54.5,0,0,1,12,13.55h0l.09.15a34.75,34.75,0,0,0,29.48,16.83h28.76q-2.42-21.27-11.67-37.74A95.08,95.08,0,0,0,203.81,41.1a89.4,89.4,0,0,0-12.87-12.34,103.86,103.86,0,0,0-32.25-17,123.74,123.74,0,0,0-38.26-5.83q-28.14,0-50.61,10A112.83,112.83,0,0,0,49.24,27.68h-.06c-.35.25-.69.52-1,.78l-1.24.94c-.87.66-1.73,1.34-2.57,2-.4.33-.8.65-1.2,1-.86.72-1.7,1.46-2.54,2.21l-1.05.94c-1.15,1.06-2.29,2.14-3.4,3.26l-.25.24c-1.36,1.38-2.69,2.81-4,4.27-1.06,1.2-2.08,2.43-3.08,3.67-.35.43-.7.85-1,1.28h0a124.12,124.12,0,0,0-19.56,36A153.06,153.06,0,0,0,0,135.29a148,148,0,0,0,8.23,49.92,119.35,119.35,0,0,0,23.68,40.32,104.8,104.8,0,0,0,17.66,15.62,127.63,127.63,0,0,0,73-23.9C121.84,217.27,121.15,217.29,120.43,217.29Z"/><path class="cls-1" d="M245.83,187.54l0,0Z"/><path class="cls-1" d="M245,189.81a2.58,2.58,0,0,0,.08-.26A2.58,2.58,0,0,1,245,189.81Z"/><path class="cls-1" d="M243.79,194.36l.06-.26Z"/><path class="cls-1" d="M244.35,192.06l.09-.33Z"/><path class="cls-1" d="M244.44,191.73c.18-.65.38-1.29.58-1.92C244.82,190.44,244.62,191.08,244.44,191.73Z"/><path class="cls-1" d="M243.85,194.1c.15-.69.32-1.37.5-2C244.17,192.73,244,193.41,243.85,194.1Z"/><path class="cls-1" d="M243,199.06h0c.21-1.62.48-3.19.81-4.69C243.46,195.87,243.18,197.43,243,199.06Z"/><path class="cls-1" d="M245.1,189.55c.23-.68.48-1.36.73-2C245.58,188.19,245.33,188.87,245.1,189.55Z"/><path class="cls-1" d="M299.86,187.59a32.11,32.11,0,0,1,9.26-4.62,87.33,87.33,0,0,1,10.81-2.75c3.88-.68,7.78-1.25,11.67-1.71a213.84,213.84,0,0,0,22.82-4.91l.22-.06c14.69-4,33-10.67,44.18-20.88A25.36,25.36,0,0,0,409,132.37V125a51,51,0,0,0-2.81-17.68,33.49,33.49,0,0,0-4.39-8.25A49.71,49.71,0,0,0,383.27,83.8a83.21,83.21,0,0,0-25-7.37c-4.58-.62-9.13-1.1-13.63-1.41q-1.69-.12-3.39-.21-5.07-.27-10.08-.27c-2.41,0-4.84.06-7.25.18a151.77,151.77,0,0,0-22,2.73,83.66,83.66,0,0,0-26.24,9.79,58.47,58.47,0,0,0-19.21,18.18q-7.56,11.33-8.58,28.49h30.65a24.55,24.55,0,0,0,21.68-13.4,21.07,21.07,0,0,1,6-7.19q7.21-5.4,19.14-6.06c1.1-.08,2.21-.11,3.37-.11,2.17,0,4.29.08,6.31.21s4.07.36,6,.64a27.33,27.33,0,0,1,10,3.43,18.83,18.83,0,0,1,6.86,7.21,16.13,16.13,0,0,1,1.12,2.52,30.17,30.17,0,0,1,1.45,10c.22,5-1.27,8.86-4.46,11.49s-7.56,4.64-13,6a133.67,133.67,0,0,1-18.87,3.09q-10.64,1-21.62,2.73a207.92,207.92,0,0,0-21.78,4.64,65,65,0,0,0-13.07,5,56.61,56.61,0,0,0-6.15,3.7,44.56,44.56,0,0,0-13.73,15.61,37,37,0,0,0-1.85,4l0,0c-.25.65-.5,1.33-.73,2a2.58,2.58,0,0,1-.08.26c-.2.63-.4,1.27-.58,1.92l-.09.33c-.18.67-.35,1.35-.5,2l-.06.26c-.33,1.5-.6,3.07-.81,4.69-.12,1-.23,1.93-.31,2.92q-.27,3.08-.27,6.4,0,13.73,4.62,23.68a44.84,44.84,0,0,0,12.88,16.47,54.41,54.41,0,0,0,19.21,9.61,86.7,86.7,0,0,0,21.11,3.05c.81,0,1.61,0,2.42,0q3.11,0,6.16-.17l2.05-.13c2.13-.16,4.25-.37,6.36-.65A110.24,110.24,0,0,0,335,256.4a63.46,63.46,0,0,0,27.34-16.69l.08-.08,0,0a1.49,1.49,0,0,0,0,.21,25.63,25.63,0,0,0,23.91,16.95H409V169.43A127.43,127.43,0,0,0,370,186.91l-.74.5A25.63,25.63,0,0,0,358.48,205c.06-.51.13-1,.22-1.49a38.39,38.39,0,0,1-3.77,9.16,32.1,32.1,0,0,1-11.67,11.5,33.1,33.1,0,0,1-12.57,4.14c-1.49.21-3,.39-4.69.49s-3.37.17-5.17.17h-.11c-.83,0-1.66,0-2.49-.06-.54,0-1.06-.05-1.59-.09a.23.23,0,0,1-.14,0c-.38,0-.76,0-1.13-.07l-1.08-.1-1.88-.24c-.46-.06-.92-.12-1.38-.21l-1.38-.24a27.33,27.33,0,0,1-9.61-3.6,18.37,18.37,0,0,1-6.52-7,22.76,22.76,0,0,1-2.4-11,23.73,23.73,0,0,1,2.4-11.34h0A22.33,22.33,0,0,1,299.86,187.59Z"/><path class="cls-1" d="M913.09,63.09l-.09.53Z"/><path class="cls-1" d="M913.44,58.89a25.42,25.42,0,0,1-.35,4.2A23.19,23.19,0,0,0,913.44,58.89Z"/><path class="cls-1" d="M913,63.62c0,.06,0,.12,0,.18S913,63.68,913,63.62Z"/><path class="cls-2" d="M661.07,116.11,643.76,155.4H624.89L694.59,0H713l69.49,155.4H763.19l-17.31-39.29ZM703.25,20.2,668.62,99h69.71Z"/><path class="cls-2" d="M899.72,155.4H882.4V129c-7.77,18.21-23.31,26.86-44.4,27.09-27.3,0-43.73-17.32-43.73-45.51V38.41h17.32v67.48c0,20.65,12.2,32.86,32.41,32.86,24.19-.44,38.4-18,38.4-42.85V38.41h17.32Z"/><path class="cls-2" d="M1002.28,147.41c-8.21,5.55-17.09,8.66-26.42,8.88-17.09,0-29.75-10.21-29.75-33.3V56.17H929.24v-14h16.87V11.32h17.1V42.18l37.07-.22V56.17H963.21v63.71c0,14.21,5.55,19.54,15.54,19.54q9,0,18.65-6Z"/><path class="cls-2" d="M1133.48,96.79c0,35.08-24.64,59.28-59.27,59.28s-59.27-24.2-59.27-59.28c0-34.85,24.64-58.83,59.27-58.83S1133.48,61.94,1133.48,96.79ZM1032.25,97c0,25.76,17.54,43.52,42,43.52s42-17.76,42-43.52c0-25.53-17.54-43.29-42-43.29S1032.25,71.48,1032.25,97Z"/><path class="cls-2" d="M1357.26,83.25V155.4h-17.32V87.91c0-20.87-12.21-33.08-32.41-33.08-24.2.67-38.18,18-38.18,43.07v57.5h-17.54V87.91c0-20.87-12-33.08-32.41-33.08-24,.67-38.41,18-38.41,43.07v57.5H1163.9v-117H1181V64.82c7.77-18.2,23.53-26.86,44.62-27.08,22,0,37.08,11.32,42,30.64,7.33-20.65,23.75-30.42,46.18-30.64C1341.05,37.74,1357.26,55.06,1357.26,83.25Z"/><path class="cls-2" d="M1468.26,137.42c-9.33,12.65-24.2,18.87-42.85,18.87-24.2,0-39.74-15.54-39.74-35.74,0-20.43,16.21-33.3,43.74-33.53h38.4V80.14c0-17.09-10.65-27.3-31.3-27.3-12.88,0-24.86,4.88-37.07,13.32l-7.33-12.66c15.1-10,27.75-15.76,47.73-15.76,28.86,0,44.84,15.32,45.07,40.4l.22,77.26h-16.87ZM1468,115V101h-36.4c-19.54,0-29.75,6-29.75,18.87s10.43,21.31,26.86,21.31C1448.5,141.19,1463.59,131.2,1468,115Z"/><path class="cls-2" d="M1584.14,147.41c-8.21,5.55-17.09,8.66-26.42,8.88-17.09,0-29.75-10.21-29.75-33.3V56.17H1511.1v-14H1528V11.32h17.1V42.18l37.07-.22V56.17h-37.07v63.71c0,14.21,5.55,19.54,15.54,19.54q9,0,18.65-6Z"/><path class="cls-2" d="M1709.35,103.67h-95.46c3.11,22.87,19.76,37.3,42.4,37.3,14.43,0,27.08-5.11,36.19-14.65l9.54,10.21c-11.1,12.43-27.53,19.54-47.06,19.54-34.41,0-58.17-24.2-58.17-59.06s24-59,58-59C1692.48,37.74,1711.12,63.94,1709.35,103.67Zm-15.54-14.2c-1.11-22.43-16.21-36.63-39.07-36.63-22.2,0-38.19,14.43-40.85,36.63Z"/></svg>