<svg id="Layer_1" data-name="Layer 1" xmlns="http://www.w3.org/2000/svg" viewBox="0 0 1196.86 272.45"><defs><style>.cls-1{fill:#3cf;}.cls-2{fill:#919d9d;}</style></defs><title>CanProof </title><path class="cls-1" d="M587.91,104.85q-7.21-9.43-19.73-14.76T536.1,84.77a69.47,69.47,0,0,0-30.2,7,52.26,52.26,0,0,0-12.45,8.31,56.1,56.1,0,0,0-12.3,16.4,128.85,128.85,0,0,1-46.61,50.69v74.06A25.69,25.69,0,0,0,460.23,267h23V174q0-27.1,8.92-38.94T521,123.2q17.5,0,24.36,10.81t6.86,32.77V241.9A25.06,25.06,0,0,0,577.28,267h23.66V157.85a143.35,143.35,0,0,0-2.91-30A57.21,57.21,0,0,0,587.91,104.85Z"/><path class="cls-1" d="M434.54,89.58v60.79a128.09,128.09,0,0,0,35.17-60.79Z"/><path class="cls-1" d="M159.14,212.28l-.11.13c-.8.87-1.64,1.69-2.49,2.48-1.81,1.87-3.57,3.79-5.26,5.77q-2.82,3.81-5.89,7.4A128.29,128.29,0,0,1,84,267.72a133.46,133.46,0,0,0,35.61,4.72h.8c1.33,0,2.63,0,3.94-.07A118.93,118.93,0,0,0,162,265.59a96.14,96.14,0,0,0,32.93-19.9,99.35,99.35,0,0,0,22.65-31.57,121.66,121.66,0,0,0,10.09-36.53A127.65,127.65,0,0,0,171.09,202,130.31,130.31,0,0,0,159.14,212.28Z"/><path class="cls-1" d="M120.43,227.5q-18.2,0-30.88-7A58.83,58.83,0,0,1,69,201.77a81,81,0,0,1-11.49-26.25,124.67,124.67,0,0,1-3.6-30,134.16,134.16,0,0,1,3.6-31.22,87.84,87.84,0,0,1,5.37-15.82c.44-1,.89-1.92,1.36-2.85a.8.8,0,0,1,.08-.16c.44-.88.89-1.74,1.35-2.59l.45-.78c.37-.66.74-1.32,1.13-2,.57-.94,1.15-1.87,1.75-2.77A58.35,58.35,0,0,1,89.55,68.48q12.69-7,30.88-7c.56,0,1.12,0,1.68,0h0a56.07,56.07,0,0,1,33.66,12.31,54.55,54.55,0,0,1,12,13.56h0l.09.15a34.75,34.75,0,0,0,29.48,16.83h28.76q-2.42-21.27-11.67-37.74a95,95,0,0,0-10.63-15.27A88.94,88.94,0,0,0,190.94,39a104.07,104.07,0,0,0-32.25-17,123.74,123.74,0,0,0-38.26-5.83q-28.14,0-50.61,10A113.42,113.42,0,0,0,49.24,37.89h-.06c-.35.25-.69.52-1,.78l-1.24.94c-.87.67-1.73,1.34-2.57,2-.4.33-.8.65-1.2,1-.86.72-1.7,1.46-2.54,2.21l-1.05.94c-1.15,1.06-2.29,2.14-3.4,3.26l-.25.24c-1.36,1.38-2.69,2.81-4,4.27-1.06,1.2-2.08,2.43-3.08,3.68-.35.42-.7.85-1,1.28h0a124.12,124.12,0,0,0-19.56,36A153.1,153.1,0,0,0,0,145.5a147.9,147.9,0,0,0,8.23,49.92,119.25,119.25,0,0,0,23.68,40.32,103.92,103.92,0,0,0,17.66,15.62,127.49,127.49,0,0,0,73-23.9C121.84,227.48,121.15,227.5,120.43,227.5Z"/><path class="cls-1" d="M245.83,197.75l0,0Z"/><path class="cls-1" d="M245,200c0-.09.06-.17.08-.25C245.08,199.85,245.05,199.93,245,200Z"/><path class="cls-1" d="M243.79,204.57l.06-.26Z"/><path class="cls-1" d="M244.35,202.28l.09-.34Z"/><path class="cls-1" d="M244.44,201.94c.18-.65.38-1.29.58-1.92C244.82,200.65,244.62,201.29,244.44,201.94Z"/><path class="cls-1" d="M243.85,204.31c.15-.69.32-1.37.5-2C244.17,202.94,244,203.62,243.85,204.31Z"/><path class="cls-1" d="M243,209.27h0c.21-1.62.48-3.18.81-4.69C243.46,206.08,243.18,207.65,243,209.27Z"/><path class="cls-1" d="M245.1,199.77c.23-.69.48-1.36.73-2C245.58,198.41,245.33,199.08,245.1,199.77Z"/><path class="cls-1" d="M299.86,197.81a32.13,32.13,0,0,1,9.26-4.63,89.14,89.14,0,0,1,10.81-2.75c3.88-.68,7.78-1.25,11.67-1.71a213.84,213.84,0,0,0,22.82-4.91l.22-.06c14.69-4,33-10.67,44.18-20.87A25.39,25.39,0,0,0,409,142.58v-7.36a51,51,0,0,0-2.81-17.69,33.85,33.85,0,0,0-4.39-8.25A49.59,49.59,0,0,0,383.27,94a82.94,82.94,0,0,0-25-7.38c-4.58-.62-9.13-1.1-13.63-1.41q-1.69-.12-3.39-.21-5.07-.27-10.08-.27c-2.41,0-4.84.06-7.25.18a150.41,150.41,0,0,0-22,2.74,83.4,83.4,0,0,0-26.24,9.78,58.58,58.58,0,0,0-19.21,18.18q-7.56,11.34-8.58,28.49h0v0h30.64a24.57,24.57,0,0,0,21.68-13.4,21,21,0,0,1,6-7.2q7.21-5.39,19.14-6.06c1.1-.08,2.21-.11,3.37-.11,2.17,0,4.29.08,6.31.21s4.07.36,6,.64a27.33,27.33,0,0,1,10,3.44,18.76,18.76,0,0,1,6.86,7.21,15.61,15.61,0,0,1,1.12,2.51,30.21,30.21,0,0,1,1.45,10c.22,5-1.27,8.86-4.46,11.49s-7.56,4.64-13,6A132.24,132.24,0,0,1,324.05,162c-7.09.68-14.3,1.61-21.62,2.74a202.94,202.94,0,0,0-21.78,4.64,64.35,64.35,0,0,0-13.07,5,58.25,58.25,0,0,0-6.15,3.7,44.65,44.65,0,0,0-13.73,15.61,37,37,0,0,0-1.85,4l0,0c-.25.66-.5,1.33-.73,2,0,.08,0,.16-.08.25-.2.63-.4,1.27-.58,1.92l-.09.34c-.18.66-.35,1.34-.5,2l-.06.26c-.33,1.51-.6,3.07-.81,4.69-.12,1-.23,1.93-.31,2.93-.18,2.05-.27,4.17-.27,6.39q0,13.74,4.62,23.68a45,45,0,0,0,12.88,16.48,54.39,54.39,0,0,0,19.21,9.6,86.22,86.22,0,0,0,21.11,3.05c.81,0,1.61,0,2.42,0q3.11,0,6.16-.17l2.05-.13q3.19-.22,6.36-.65A111.28,111.28,0,0,0,335,266.62a63.57,63.57,0,0,0,27.34-16.7l.08-.08,0,0a1.49,1.49,0,0,0,0,.21A25.63,25.63,0,0,0,386.42,267H409V179.64A127.43,127.43,0,0,0,370,197.12l-.74.5a25.63,25.63,0,0,0-10.74,17.58c.06-.5.13-1,.22-1.49a38.46,38.46,0,0,1-3.77,9.17,32.08,32.08,0,0,1-11.67,11.49,33.1,33.1,0,0,1-12.57,4.14c-1.49.22-3,.39-4.69.5s-3.37.16-5.17.16h-.11c-.83,0-1.66,0-2.49-.06-.54,0-1.06,0-1.59-.09a.23.23,0,0,1-.14,0l-1.13-.08c-.36,0-.72-.05-1.08-.1l-1.88-.24c-.46-.06-.92-.12-1.38-.21s-.92-.15-1.38-.24a27.32,27.32,0,0,1-9.61-3.59,18.4,18.4,0,0,1-6.52-7.05,22.76,22.76,0,0,1-2.4-11,23.66,23.66,0,0,1,2.4-11.33v0A22.2,22.2,0,0,1,299.86,197.81Z"/><path class="cls-1" d="M913.09,73.3l-.09.53Z"/><path class="cls-1" d="M913.44,69.1a25.42,25.42,0,0,1-.35,4.2A23.12,23.12,0,0,0,913.44,69.1Z"/><path class="cls-1" d="M913,73.83c0,.06,0,.12,0,.18S913,73.89,913,73.83Z"/><path class="cls-2" d="M686.7,10.21c38.41,0,60.61,19.09,60.61,52.17,0,34.41-22.2,54.17-60.61,54.17H646.08v49.06H628.32V10.21ZM646.08,99.46h40c28,0,44.17-12.44,44.17-36.63,0-23.54-16.2-35.52-44.17-35.52h-40Z"/><path class="cls-2" d="M791.71,74.59c7.77-17.09,22.2-26.42,41.95-26.64V65.49c-24.64-.44-40,14.87-41.95,38v62.16H774.39v-117h17.32Z"/><path class="cls-2" d="M963.76,107c0,35.08-24.65,59.28-59.28,59.28s-59.27-24.2-59.27-59.28c0-34.85,24.64-58.83,59.27-58.83S963.76,72.15,963.76,107Zm-101.24.23c0,25.75,17.54,43.51,42,43.51s42-17.76,42-43.51c0-25.53-17.54-43.29-42-43.29S862.52,81.7,862.52,107.23Z"/><path class="cls-2" d="M1101,107c0,35.08-24.64,59.28-59.27,59.28S982.4,142.08,982.4,107c0-34.85,24.64-58.83,59.28-58.83S1101,72.15,1101,107Zm-101.23.23c0,25.75,17.54,43.51,42,43.51s42-17.76,42-43.51c0-25.53-17.53-43.29-42-43.29S999.72,81.7,999.72,107.23Z"/><path class="cls-2" d="M1151.35,37.07v15.1h33.52V66.38h-33.52v99.23h-17.1V66.38h-15.09V52.17h15.09V39.29c0-25.53,18-39.29,37.52-39.29,8.88.22,18,2.89,25.09,8.21l-7.11,14a31.62,31.62,0,0,0-17.76-6C1160.67,16.21,1151.35,23.53,1151.35,37.07Z"/></svg>