<svg id="Layer_1" data-name="Layer 1" xmlns="http://www.w3.org/2000/svg" viewBox="0 0 1080.32 269.74"><defs><style>.cls-1{fill:#3cf;}.cls-2{fill:#919d9d;}</style></defs><title>CanTask </title><path class="cls-1" d="M587.91,102.13q-7.21-9.43-19.73-14.76T536.1,82.06a69.6,69.6,0,0,0-30.2,7,52,52,0,0,0-12.45,8.32,56,56,0,0,0-12.3,16.4,128.76,128.76,0,0,1-46.61,50.68v74.07a25.69,25.69,0,0,0,25.69,25.69h23v-93q0-27.09,8.92-38.94T521,120.48q17.5,0,24.36,10.81t6.86,32.77v75.13a25.06,25.06,0,0,0,25.06,25.06h23.66V155.14a143.29,143.29,0,0,0-2.91-30A57.2,57.2,0,0,0,587.91,102.13Z"/><path class="cls-1" d="M434.54,86.86v60.79a128,128,0,0,0,35.17-60.79Z"/><path class="cls-1" d="M159.14,209.56l-.11.13c-.8.87-1.64,1.69-2.49,2.49-1.81,1.86-3.57,3.78-5.26,5.76q-2.82,3.81-5.89,7.4A128.29,128.29,0,0,1,84,265a133.86,133.86,0,0,0,35.61,4.73h.8c1.33,0,2.63,0,3.94-.08A118.93,118.93,0,0,0,162,262.87,96.14,96.14,0,0,0,194.88,243a99.42,99.42,0,0,0,22.65-31.56,121.82,121.82,0,0,0,10.09-36.53,127.53,127.53,0,0,0-56.53,24.38A130.2,130.2,0,0,0,159.14,209.56Z"/><path class="cls-1" d="M120.43,224.79q-18.2,0-30.88-7A59,59,0,0,1,69,199.06a81.16,81.16,0,0,1-11.49-26.25,124.79,124.79,0,0,1-3.6-30,134.25,134.25,0,0,1,3.6-31.23,88.1,88.1,0,0,1,5.37-15.82c.44-1,.89-1.91,1.36-2.85a1.19,1.19,0,0,1,.08-.16c.44-.87.89-1.74,1.35-2.59l.45-.78c.37-.66.74-1.32,1.13-2,.57-.94,1.15-1.86,1.75-2.77A58.35,58.35,0,0,1,89.55,65.76q12.69-7,30.88-7l1.68,0h0a56.17,56.17,0,0,1,33.66,12.32,54.33,54.33,0,0,1,12,13.55h0l.09.15a34.73,34.73,0,0,0,29.48,16.83h28.76q-2.42-21.27-11.67-37.74A95.44,95.44,0,0,0,203.81,48.6a88.94,88.94,0,0,0-12.87-12.35,103.84,103.84,0,0,0-32.25-17,123.44,123.44,0,0,0-38.26-5.83q-28.14,0-50.61,10A113.38,113.38,0,0,0,49.24,35.17h-.06l-1,.79-1.24.93c-.87.67-1.73,1.35-2.57,2l-1.2,1c-.86.72-1.7,1.46-2.54,2.21l-1.05.94c-1.15,1.06-2.29,2.15-3.4,3.26-.08.09-.17.16-.25.24q-2,2.09-4,4.27c-1.06,1.2-2.08,2.44-3.08,3.68-.35.43-.7.85-1,1.28h0a124.12,124.12,0,0,0-19.56,36,153.16,153.16,0,0,0-8.23,51,148,148,0,0,0,8.23,49.92A119.21,119.21,0,0,0,31.91,233a103.92,103.92,0,0,0,17.66,15.62,127.55,127.55,0,0,0,73-23.89C121.84,224.77,121.15,224.79,120.43,224.79Z"/><path class="cls-1" d="M245.83,195l0,0Z"/><path class="cls-1" d="M245,197.3a2.41,2.41,0,0,0,.08-.25A2.41,2.41,0,0,1,245,197.3Z"/><path class="cls-1" d="M243.79,201.86l.06-.27Z"/><path class="cls-1" d="M244.35,199.56l.09-.33Z"/><path class="cls-1" d="M244.44,199.23c.18-.66.38-1.3.58-1.93C244.82,197.93,244.62,198.57,244.44,199.23Z"/><path class="cls-1" d="M243.85,201.59c.15-.69.32-1.36.5-2C244.17,200.23,244,200.9,243.85,201.59Z"/><path class="cls-1" d="M243,206.56h0c.21-1.62.48-3.19.81-4.69C243.46,203.37,243.18,204.93,243,206.56Z"/><path class="cls-1" d="M245.1,197.05c.23-.69.48-1.36.73-2C245.58,195.69,245.33,196.36,245.1,197.05Z"/><path class="cls-1" d="M299.86,195.09a32.11,32.11,0,0,1,9.26-4.62,85.59,85.59,0,0,1,10.81-2.75c3.88-.69,7.78-1.25,11.67-1.71a215.6,215.6,0,0,0,22.82-4.92l.22-.06c14.69-4,33-10.66,44.18-20.87A25.38,25.38,0,0,0,409,139.86V132.5a51,51,0,0,0-2.81-17.68,33.49,33.49,0,0,0-4.39-8.25A49.61,49.61,0,0,0,383.27,91.3a82.93,82.93,0,0,0-25-7.37q-6.87-.95-13.63-1.42c-1.13-.07-2.26-.15-3.39-.21Q336.14,82,331.13,82c-2.41,0-4.84.06-7.25.18a150.39,150.39,0,0,0-22,2.73,83.64,83.64,0,0,0-26.24,9.78,58.5,58.5,0,0,0-19.21,18.19q-7.56,11.33-8.58,28.48h0v0h30.64A24.57,24.57,0,0,0,300.21,128a20.88,20.88,0,0,1,6-7.19q7.21-5.4,19.14-6.07c1.1-.07,2.21-.1,3.37-.1,2.17,0,4.29.07,6.31.21s4.07.35,6,.63a27.52,27.52,0,0,1,10,3.44,18.83,18.83,0,0,1,6.86,7.21,16.43,16.43,0,0,1,1.12,2.51,30.21,30.21,0,0,1,1.45,10c.22,5-1.27,8.86-4.46,11.5s-7.56,4.63-13,6a130.84,130.84,0,0,1-18.87,3.09q-10.64,1-21.62,2.74a205.4,205.4,0,0,0-21.78,4.64,65,65,0,0,0-13.07,5,56.54,56.54,0,0,0-6.15,3.69A44.74,44.74,0,0,0,247.7,191a37.88,37.88,0,0,0-1.85,4l0,0c-.25.66-.5,1.33-.73,2a2.41,2.41,0,0,1-.08.25c-.2.63-.4,1.27-.58,1.93l-.09.33c-.18.67-.35,1.34-.5,2l-.06.27c-.33,1.5-.6,3.07-.81,4.69-.12.95-.23,1.92-.31,2.92q-.27,3.08-.27,6.39,0,13.74,4.62,23.69A44.92,44.92,0,0,0,259.9,256a54.22,54.22,0,0,0,19.21,9.6,85.74,85.74,0,0,0,21.11,3.05c.81,0,1.61,0,2.42,0,2.07,0,4.12-.06,6.16-.16l2.05-.14q3.19-.22,6.36-.65A110.21,110.21,0,0,0,335,263.9a63.38,63.38,0,0,0,27.34-16.7l.08-.07,0,0a1.49,1.49,0,0,0,0,.21,25.62,25.62,0,0,0,23.91,17H409V176.93A127.43,127.43,0,0,0,370,194.41l-.74.49a25.67,25.67,0,0,0-10.74,17.58c.06-.5.13-1,.22-1.48a38.56,38.56,0,0,1-3.77,9.16,32,32,0,0,1-11.67,11.49,33.1,33.1,0,0,1-12.57,4.14c-1.49.22-3,.39-4.69.5s-3.37.16-5.17.16h-.11c-.83,0-1.66,0-2.49,0-.54,0-1.06-.05-1.59-.09a.23.23,0,0,1-.14,0c-.38,0-.76,0-1.13-.08s-.72-.05-1.08-.1c-.63-.07-1.25-.16-1.88-.24-.46-.06-.92-.12-1.38-.2l-1.38-.24a27.52,27.52,0,0,1-9.61-3.6,18.33,18.33,0,0,1-6.52-7.05,22.76,22.76,0,0,1-2.4-11,23.69,23.69,0,0,1,2.4-11.33v0A22.4,22.4,0,0,1,299.86,195.09Z"/><path class="cls-1" d="M913.09,70.59l-.09.52Z"/><path class="cls-1" d="M913.44,66.39a25.51,25.51,0,0,1-.35,4.2A23.19,23.19,0,0,0,913.44,66.39Z"/><path class="cls-1" d="M913,71.11c0,.07,0,.12,0,.19S913,71.17,913,71.11Z"/><path class="cls-2" d="M673.84,26.42v138.3H656.08V26.42H605.47V9.32H724.68v17.1Z"/><path class="cls-2" d="M820.58,146.74c-9.32,12.66-24.19,18.87-42.84,18.87-24.2,0-39.74-15.54-39.74-35.74,0-20.42,16.21-33.3,43.73-33.52h38.41V89.47c0-17.1-10.66-27.31-31.3-27.31C776,62.16,764,67,751.76,75.48l-7.32-12.65c15.09-10,27.75-15.77,47.73-15.77,28.86,0,44.84,15.32,45.06,40.41l.23,77.25H820.58Zm-.22-22.42v-14H784c-19.53,0-29.74,6-29.74,18.87s10.43,21.32,26.86,21.32C800.83,150.52,815.92,140.53,820.36,124.32Z"/><path class="cls-2" d="M944.46,57.72,937.8,71.48c-9.1-5.77-20.87-9.54-31.75-9.54C893,61.94,883,66.6,883,77.48c0,26,65.27,12.65,65.27,54.61,0,23.09-20.42,33.3-42.84,33.3-16.65,0-33.75-5.77-44.85-16.43l6.66-13.1c10,9.33,25.09,14.88,38.85,14.88s24.87-5.11,25.09-16.65c.66-28.2-64.83-13.77-64.6-55.28,0-22.42,19.31-31.75,40.62-31.75C921.15,47.06,934.69,51.06,944.46,57.72Z"/><path class="cls-2" d="M995.07,131.2v33.52H977.76V0h17.31V107.67l60.16-59.94h20.43L1031.92,93l48.4,71.7h-20.65l-40-59Z"/></svg>