<?xml version="1.0" encoding="UTF-8" standalone="no"?>
<svg width="277px" height="64px" viewBox="0 0 277 64" version="1.1" xmlns="http://www.w3.org/2000/svg" xmlns:xlink="http://www.w3.org/1999/xlink">
    <!-- Generator: Sketch 50 (54983) - http://www.bohemiancoding.com/sketch -->
    <title>CANSTYLE</title>
    <desc>Created with Sketch.</desc>
    <defs></defs>
    <g id="CANSTYLE" stroke="none" stroke-width="1" fill="none" fill-rule="evenodd">
        <path d="M145.366958,22.7435798 C144.180088,21.1992218 142.54814,19.9980545 140.495842,19.1155642 C138.418818,18.2575875 135.797812,17.8163424 132.558643,17.8163424 C130.011816,17.8163424 127.514442,18.3801556 125.091247,19.5322957 C123.978556,20.0715953 122.940044,20.733463 122.000438,21.5669261 C120.739387,22.6945525 119.725602,24.0918288 118.959081,25.5871595 C116.338074,30.6859922 112.332385,35.0003891 107.436543,38.0155642 L107.436543,56.1801556 C107.436543,59.6610895 110.280088,62.4801556 113.791247,62.4801556 L119.478337,62.4801556 L119.478337,39.6824903 C119.478337,35.2455253 120.220131,32.0587549 121.678993,30.1466926 C123.137856,28.2101167 125.536324,27.2540856 128.800219,27.2540856 C131.693217,27.2540856 133.696061,28.1365759 134.833479,29.9015564 C135.970897,31.666537 136.539606,34.3385214 136.539606,37.9420233 L136.539606,56.351751 C136.539606,59.7346304 139.308972,62.5046693 142.745952,62.5046693 L148.606127,62.5046693 L148.606127,35.7357977 C148.606127,33.0392996 148.358862,30.5879377 147.889059,28.3817121 C147.39453,26.1509728 146.553829,24.2879377 145.366958,22.7435798 Z" id="Shape" fill="#33CCFF" fill-rule="nonzero"></path>
        <path d="M107.436543,18.9929961 L107.436543,33.8972763 C111.615317,29.9015564 114.6814,24.7536965 116.140263,18.9929961 L107.436543,18.9929961 Z" id="Shape" fill="#33CCFF" fill-rule="nonzero"></path>
        <path d="M39.3398249,49.0712062 C39.3398249,49.0712062 39.3150985,49.0957198 39.3150985,49.0957198 C39.1172867,49.3163424 38.9194748,49.5124514 38.6969365,49.7085603 C38.25186,50.1743191 37.8067834,50.6400778 37.3864333,51.1303502 C36.9166302,51.7431907 36.4468271,52.3560311 35.9275711,52.944358 C31.9713348,57.5038911 26.7293217,60.9357977 20.7455142,62.6762646 C23.4654267,63.4361868 26.4078775,63.8284047 29.54814,63.8284047 C29.6223195,63.8284047 29.6717724,63.8284047 29.7459519,63.8284047 C30.0673961,63.8284047 30.3888403,63.8284047 30.7102845,63.8038911 C34.0730853,63.7058366 37.163895,63.166537 40.0074398,62.136965 C43.1229759,61.0093385 45.8428884,59.3914397 48.1424508,57.2587549 C50.4667396,55.12607 52.3212254,52.5521401 53.7306346,49.5124514 C54.9916849,46.8159533 55.8076586,43.8252918 56.2280088,40.5649805 C51.0354486,41.4229572 46.2632385,43.5066148 42.2575492,46.5463035 C41.2684902,47.3307393 40.2794311,48.188716 39.3398249,49.0712062 Z" id="Shape" fill="#33CCFF" fill-rule="nonzero"></path>
        <path d="M29.7706783,52.8217899 C26.7787746,52.8217899 24.2319475,52.2579767 22.1301969,51.1058366 C20.0284464,49.9536965 18.347046,48.4338521 17.0365427,46.5217899 C15.7260394,44.6097276 14.7864333,42.4770428 14.1929978,40.0992218 C13.5995624,37.7214008 13.3028446,35.2700389 13.3028446,32.7451362 C13.3028446,30.122179 13.5995624,27.548249 14.1929978,25.0968872 C14.514442,23.7241245 14.9595186,22.4249027 15.5282276,21.2237354 C15.6271335,20.9785992 15.7507659,20.7579767 15.8743982,20.5373541 C15.8743982,20.5128405 15.8991247,20.5128405 15.8991247,20.4883268 C15.9980306,20.2677043 16.121663,20.0715953 16.2452954,19.8509728 C16.2700219,19.7774319 16.3194748,19.7284047 16.3442013,19.6548638 C16.4431072,19.4832685 16.5172867,19.3361868 16.6161926,19.1645914 C16.7645514,18.9439689 16.8881838,18.6988327 17.0612691,18.4782101 C18.3717724,16.5416342 20.0531729,14.9972763 22.1549234,13.8451362 C24.256674,12.6929961 26.8035011,12.1291829 29.7954048,12.1291829 C29.9437637,12.1291829 30.0673961,12.1291829 30.2157549,12.1291829 C31.6993435,12.1782101 33.1334792,12.4233463 34.5181619,12.9136187 C36.026477,13.4529183 37.3617068,14.1883268 38.5485777,15.144358 C39.7354486,16.1003891 40.7245077,17.2035019 41.5157549,18.4782101 C41.5157549,18.4782101 41.5157549,18.4782101 41.5157549,18.4782101 C41.5157549,18.5027237 41.5404814,18.5027237 41.5404814,18.5272374 C43.1229759,21.0521401 45.8428884,22.6455253 48.8347921,22.6455253 L55.9560175,22.6455253 C55.5603939,19.1645914 54.5960613,16.0758755 53.0630197,13.4038911 C52.2964989,12.055642 51.4063457,10.8054475 50.4420131,9.65330739 C49.4776805,8.55019455 48.414442,7.52062257 47.2522976,6.6381323 C44.9032823,4.82412451 42.2575492,3.42684825 39.2656455,2.47081712 C36.2984683,1.51478599 33.1334792,1.04902724 29.7954048,1.04902724 C25.1468271,1.04902724 20.992779,1.85797665 17.2838074,3.47587549 C15.4293217,4.2848249 13.7479212,5.24085603 12.1901532,6.36848249 C12.1901532,6.36848249 12.1901532,6.36848249 12.1654267,6.36848249 C12.0665208,6.44202335 11.9923414,6.49105058 11.9181619,6.56459144 C11.819256,6.6381323 11.7203501,6.71167315 11.6214442,6.78521401 C11.3989059,6.95680934 11.2010941,7.10389105 10.9785558,7.27548638 C10.8796499,7.34902724 10.780744,7.44708171 10.6818381,7.52062257 C10.4592998,7.6922179 10.261488,7.88832685 10.0636761,8.05992218 C9.98949672,8.13346304 9.89059081,8.20700389 9.7916849,8.28054475 C9.49496718,8.55019455 9.22297593,8.79533074 8.95098468,9.08949416 C8.92625821,9.08949416 8.90153173,9.08949416 8.87680525,9.11400778 C8.53063457,9.45719844 8.20919037,9.80038911 7.88774617,10.1680934 C7.61575492,10.4622568 7.36849015,10.7564202 7.12122538,11.0750973 C7.04704595,11.1731518 6.94814004,11.2712062 6.87396061,11.3937743 C6.87396061,11.3937743 6.87396061,11.3937743 6.87396061,11.3937743 C4.82166302,13.9677043 3.21444201,16.9093385 2.02757112,20.218677 C0.66761488,24.0673152 0,28.2346304 0,32.7206226 C0,37.0840467 0.66761488,41.177821 2.02757112,44.9529183 C3.38752735,48.7280156 5.34091904,52.0373541 7.88774617,54.8319066 C9.19824945,56.2782101 10.6571116,57.5529183 12.2643326,58.6560311 C18.9899344,58.5824903 25.2210066,56.4252918 30.3146608,52.7972763 C30.116849,52.7972763 29.9437637,52.8217899 29.7706783,52.8217899 Z" id="Shape" fill="#33CCFF" fill-rule="nonzero"></path>
        <path d="M60.5798687,46.1570039 C60.5798687,46.1070039 60.6298687,46.0570039 60.6298687,46.0070039 C60.6298687,46.0570039 60.5798687,46.1070039 60.5798687,46.1570039 Z" id="Shape" fill="#33CCFF" fill-rule="nonzero"></path>
        <path d="M60.283151,47.2601167 C60.283151,47.2101167 60.283151,47.1601167 60.333151,47.1101167 C60.283151,47.1601167 60.283151,47.2101167 60.283151,47.2601167 Z" id="Shape" fill="#33CCFF" fill-rule="nonzero"></path>
        <path d="M60.4067834,46.6963035 C60.4067834,46.6463035 60.4567834,46.5963035 60.4567834,46.5463035 C60.4567834,46.5963035 60.4567834,46.6463035 60.4067834,46.6963035 Z" id="Shape" fill="#33CCFF" fill-rule="nonzero"></path>
        <path d="M60.4315098,46.5805447 C60.5315098,46.3963342 60.6315098,46.2384395 60.7315098,46.0805447 C60.6315098,46.2384395 60.5315098,46.3963342 60.4315098,46.5805447 Z" id="Shape" fill="#33CCFF" fill-rule="nonzero"></path>
        <path d="M60.283151,47.144358 C60.383151,46.969358 60.433151,46.794358 60.533151,46.644358 C60.483151,46.794358 60.383151,46.969358 60.283151,47.144358 Z" id="Shape" fill="#33CCFF" fill-rule="nonzero"></path>
        <path d="M60.0853392,48.3357977 C60.0853392,48.3357977 60.0853392,48.3357977 60.0853392,48.3357977 C60.1853392,47.9435798 60.3353392,47.5513619 60.4853392,47.1836576 C60.3353392,47.5513619 60.1853392,47.9435798 60.0853392,48.3357977 Z" id="Shape" fill="#33CCFF" fill-rule="nonzero"></path>
        <path d="M60.6045952,46.0167315 C60.7045952,45.8417315 60.8545952,45.6667315 60.9545952,45.5167315 C60.8545952,45.6917315 60.7045952,45.8417315 60.6045952,46.0167315 Z" id="Shape" fill="#33CCFF" fill-rule="nonzero"></path>
        <path d="M74.1547046,45.5412451 C74.797593,45.0754864 75.5641138,44.6832685 76.454267,44.4136187 C77.3196937,44.1439689 78.2345733,43.8988327 79.1247265,43.7272374 C80.0890591,43.555642 81.0533917,43.4330739 82.0177243,43.3105058 C82.0177243,43.3105058 84.490372,42.9673152 87.6553611,42.1093385 C87.6800875,42.1093385 87.6800875,42.1093385 87.704814,42.0848249 C91.3396061,41.1042802 95.8645514,39.4618677 98.6339168,36.9614786 C100.216411,35.7848249 101.156018,33.9463035 101.156018,31.985214 L101.156018,30.1712062 C101.156018,28.5287938 100.933479,27.0824903 100.463676,25.8322957 C100.191685,25.0968872 99.8207877,24.4105058 99.3757112,23.822179 C98.1888403,22.2287938 96.6557987,20.9785992 94.8013129,20.0715953 C92.9468271,19.1645914 90.8698031,18.5762646 88.6196937,18.2575875 C87.4822757,18.1105058 86.3695842,17.9879377 85.2568928,17.9143969 C84.9849015,17.8898833 84.6881838,17.8898833 84.4161926,17.8653696 C83.5754923,17.8163424 82.7595186,17.7918288 81.9188184,17.7918288 C81.3253829,17.7918288 80.7319475,17.8163424 80.138512,17.840856 C78.3087527,17.9389105 76.5037199,18.1595331 74.6986871,18.5027237 C72.3002188,18.9684825 70.1242888,19.7774319 68.2203501,20.9050584 C66.2916849,22.0326848 64.7091904,23.5035019 63.4728665,25.366537 C62.2365427,27.229572 61.5194748,29.5338521 61.3463895,32.3529183 C61.3463895,32.3529183 61.3463895,32.3529183 61.3463895,32.3529183 L68.9126915,32.3529183 C71.1875274,32.3529183 73.2150985,31.0536965 74.278337,29.0680934 C74.6492341,28.3571984 75.1437637,27.7688716 75.7619256,27.3031128 C76.9487965,26.4206226 78.531291,25.9303502 80.4846827,25.8077821 C80.756674,25.7832685 81.0286652,25.7832685 81.3253829,25.7832685 C81.8693654,25.7832685 82.3886214,25.8077821 82.883151,25.8322957 C83.402407,25.8568093 83.8969365,25.9303502 84.3667396,25.9793774 C85.3063457,26.1264591 86.1223195,26.3961089 86.8393873,26.8128405 C87.5564551,27.229572 88.1004376,27.8178988 88.5455142,28.577821 C88.6444201,28.77393 88.743326,28.9700389 88.8175055,29.1906615 C89.0647702,29.8525292 89.1636761,30.6859922 89.1636761,31.6420233 C89.2131291,32.8677043 88.8422319,33.8237354 88.0509847,34.4610895 C87.2597374,35.0984436 86.1717724,35.588716 84.8365427,35.9319066 C83.4765864,36.2750973 81.9188184,36.5202335 80.1632385,36.6918288 C78.4076586,36.8634241 76.6273523,37.0840467 74.8223195,37.3536965 C73.0172867,37.6233463 71.2122538,38.0155642 69.4319475,38.481323 C68.2698031,38.8 67.2065646,39.2167315 66.192779,39.7070039 C65.673523,39.9766537 65.154267,40.2708171 64.6597374,40.6140078 C63.2750547,41.5700389 62.1376368,42.8447471 61.2722101,44.4381323 C61.0991247,44.7568093 60.9507659,45.0754864 60.802407,45.418677 C60.802407,45.418677 60.802407,45.418677 60.802407,45.418677 C60.7282276,45.5902724 60.6787746,45.7373541 60.6293217,45.9089494 C60.6293217,45.933463 60.6045952,45.9579767 60.6045952,45.9824903 C60.5551422,46.129572 60.5056893,46.3011673 60.4562363,46.448249 C60.4562363,46.4727626 60.4315098,46.4972763 60.4315098,46.5217899 C60.3820569,46.6933852 60.3573304,46.8404669 60.3078775,47.0120623 C60.3078775,47.0365759 60.3078775,47.0610895 60.283151,47.0856031 C60.2089716,47.4533074 60.1347921,47.8455253 60.0853392,48.2377432 C60.0606127,48.4828794 60.0358862,48.7035019 60.0111597,48.9486381 C59.9617068,49.4634241 59.9369803,49.9782101 59.9369803,50.5175097 C59.9369803,52.7727626 60.3078775,54.7093385 61.0743982,56.3272374 C61.840919,57.9451362 62.9041575,59.2933852 64.2641138,60.3719844 C65.62407,61.42607 67.2065646,62.2105058 69.0115974,62.7252918 C70.6435449,63.166537 72.3743982,63.4361868 74.228884,63.4607004 C74.4266958,63.4607004 74.6245077,63.4607004 74.8223195,63.4607004 C75.3415755,63.4607004 75.836105,63.4361868 76.3553611,63.4116732 C76.5284464,63.4116732 76.7015317,63.3871595 76.8746171,63.3871595 C77.3938731,63.3381323 77.9131291,63.2891051 78.4571116,63.2400778 C79.9407002,63.0439689 81.4242888,62.7252918 82.8584245,62.2840467 C85.4547046,61.4996109 87.704814,60.1513619 89.6087527,58.1902724 C89.6087527,58.1902724 89.6334792,58.1657588 89.6334792,58.1657588 C89.6334792,58.1657588 89.6334792,58.1657588 89.6334792,58.1657588 C89.6334792,58.1902724 89.6334792,58.1902724 89.6334792,58.214786 C90.4989059,60.6171206 92.8231947,62.3575875 95.5431072,62.3821012 L95.6420131,62.3821012 L101.131291,62.3821012 L101.131291,52.6992218 L101.131291,51.7922179 L101.131291,49.2428016 L101.131291,47.0610895 L101.131291,45.9824903 L101.131291,40.9326848 C97.6448578,41.8151751 94.3809628,43.2859922 91.4632385,45.2225681 C91.4137856,45.2715953 91.3396061,45.2961089 91.2901532,45.3451362 C89.880744,46.3256809 88.8669584,47.8700389 88.6444201,49.6595331 C88.6691466,49.536965 88.6691466,49.4143969 88.6938731,49.2918288 C88.4960613,50.051751 88.1746171,50.7871595 87.754267,51.5470817 C87.136105,52.6501946 86.1717724,53.5817121 84.8612691,54.3661479 C84.0452954,54.8564202 83.0067834,55.1996109 81.745733,55.3712062 C81.3748359,55.4202335 81.0039387,55.4692607 80.5835886,55.4937743 C80.1632385,55.5182879 79.7428884,55.5428016 79.2978118,55.5428016 L79.2730853,55.5428016 C79.0752735,55.5428016 78.8527352,55.5428016 78.6549234,55.5182879 C78.531291,55.5182879 78.3829322,55.5182879 78.2592998,55.4937743 C78.2592998,55.4937743 78.2345733,55.4937743 78.2345733,55.4937743 C78.1356674,55.4937743 78.0367615,55.4937743 77.9625821,55.4692607 C77.8636761,55.4692607 77.7894967,55.4447471 77.6905908,55.4447471 C77.5422319,55.4202335 77.3938731,55.3957198 77.2207877,55.3957198 C77.0971554,55.3712062 76.9982495,55.3712062 76.8746171,55.3466926 C76.7509847,55.322179 76.6520788,55.322179 76.5284464,55.2976654 C75.6135667,55.12607 74.8223195,54.8319066 74.1547046,54.4151751 C73.4870897,53.9984436 72.9431072,53.4101167 72.5474836,52.6992218 C72.15186,51.9638132 71.9540481,51.081323 71.9540481,50.0027237 C71.9540481,48.8750973 72.15186,47.9680934 72.5474836,47.2326848 C72.9678337,46.6198444 73.4870897,46.0070039 74.1547046,45.5412451 Z" id="Shape" fill="#33CCFF" fill-rule="nonzero"></path>
        <path d="M163.707104,35.8485196 C161.285896,35.0414503 159.383547,33.9955701 158,32.7108476 L159.82825,28.8566994 C161.145914,30.0425971 162.834146,31.0061245 164.892996,31.7473106 C166.951846,32.4884966 169.068312,32.8590841 171.242458,32.8590841 C174.108377,32.8590841 176.249549,32.3732027 177.666038,31.4014255 C179.082527,30.4296482 179.790761,29.1367097 179.790761,27.5225712 C179.790761,26.3366735 179.403703,25.3731461 178.629575,24.63196 C177.855448,23.890774 176.900156,23.3225399 175.76367,22.9272406 C174.627185,22.5319414 173.021306,22.0872364 170.945985,21.5931124 C168.343598,20.967222 166.243603,20.3413409 164.645935,19.7154505 C163.048267,19.08956 161.681211,18.1260326 160.544726,16.8248393 C159.408241,15.523646 158.840007,13.769532 158.840007,11.5624446 C158.840007,9.7177149 159.325888,8.05418893 160.297665,6.57181682 C161.269443,5.08944471 162.743557,3.90356481 164.720053,3.01414155 C166.696549,2.12471828 169.150662,1.68001332 172.082465,1.68001332 C174.124844,1.68001332 176.134252,1.94354219 178.110748,2.47060783 C180.087244,2.99767347 181.783711,3.75531896 183.2002,4.74356703 L181.569599,8.69653955 C180.120168,7.77417468 178.571936,7.07417613 176.924856,6.5965229 C175.277776,6.11886966 173.663662,5.88004663 172.082465,5.88004663 C169.282428,5.88004663 167.182433,6.39063381 165.782415,7.41182348 C164.382397,8.43301315 163.682398,9.75065749 163.682398,11.364796 C163.682398,12.5506937 164.077691,13.5142211 164.86829,14.2554072 C165.658888,14.9965932 166.638886,15.5730626 167.808313,15.9848326 C168.97774,16.3966027 170.567148,16.8330724 172.576586,17.2942548 C175.178973,17.9201452 177.270733,18.5460263 178.85193,19.1719167 C180.433127,19.7978072 181.791948,20.7530993 182.928433,22.0378218 C184.064918,23.3225443 184.633152,25.0519525 184.633152,27.2260983 C184.633152,29.0378864 184.139036,30.6931771 183.150788,32.19202 C182.16254,33.6908629 180.663719,34.8767428 178.654281,35.7496953 C176.644844,36.6226477 174.174261,37.0591174 171.242458,37.0591174 C168.640071,37.0591174 166.128312,36.6555888 163.707104,35.8485196 Z M205.88038,35.1320433 C205.188606,35.7249921 204.332137,36.1779324 203.310948,36.4908776 C202.289758,36.8038228 201.235642,36.9602931 200.14857,36.9602931 C197.513241,36.9602931 195.470893,36.2520593 194.021462,34.8355704 C192.572032,33.4190815 191.847327,31.3932033 191.847327,28.7578751 L191.847327,14.3789376 L187.400233,14.3789376 L187.400233,10.4753772 L191.847327,10.4753772 L191.847327,4.74356703 L196.590894,4.74356703 L196.590894,10.4753772 L204.101542,10.4753772 L204.101542,14.3789376 L196.590894,14.3789376 L196.590894,28.5602265 C196.590894,29.9767154 196.945011,31.063772 197.653256,31.8214288 C198.3615,32.5790857 199.374439,32.9579084 200.692103,32.9579084 C202.141534,32.9579084 203.376825,32.5461446 204.398015,31.7226045 L205.88038,35.1320433 Z M234.786491,10.4753772 L222.087567,39.2826644 C220.967553,41.9509342 219.658143,43.8285774 218.159301,44.9156503 C216.660458,46.0027232 214.856932,46.5462515 212.748669,46.5462515 C211.463947,46.5462515 210.22042,46.3403695 209.018052,45.9285995 C207.815683,45.5168295 206.819215,44.9156542 206.028616,44.1250558 L208.054515,40.5673805 C209.40512,41.852103 210.969823,42.4944546 212.748669,42.4944546 C213.901626,42.4944546 214.865153,42.1897494 215.639281,41.5803297 C216.413408,40.9709101 217.113407,39.9250299 217.739297,38.4426578 L218.579304,36.614408 L207.016859,10.4753772 L211.958075,10.4753772 L221.099324,31.4261316 L230.141749,10.4753772 L234.786491,10.4753772 Z M239.233585,0 L243.977152,0 L243.977152,36.6638201 L239.233585,36.6638201 L239.233585,0 Z M276.589176,25.1507877 L255.341948,25.1507877 C255.638423,27.4566998 256.651362,29.3096372 258.380796,30.7096553 C260.11023,32.1096734 262.259637,32.8096719 264.829082,32.8096719 C267.958535,32.8096719 270.478529,31.7555565 272.389142,29.6472939 L275.007987,32.7108476 C273.822089,34.0943949 272.347974,35.1485104 270.585599,35.8732256 C268.823223,36.5979409 266.854992,36.9602931 264.680846,36.9602931 C261.913751,36.9602931 259.459639,36.392059 257.318435,35.2555737 C255.17723,34.1190884 253.52194,32.5296799 252.352513,30.4873006 C251.183086,28.4449212 250.598381,26.1390437 250.598381,23.5695987 C250.598381,21.0330953 251.166615,18.7436883 252.303101,16.7013089 C253.439586,14.6589296 255.004289,13.0695211 256.997256,11.9330358 C258.990223,10.7965505 261.238453,10.2283164 263.742015,10.2283164 C266.245577,10.2283164 268.477337,10.7965505 270.437362,11.9330358 C272.397388,13.0695211 273.929149,14.6589296 275.032693,16.7013089 C276.136236,18.7436883 276.688,21.0825069 276.688,23.7178351 C276.688,24.0801928 276.655059,24.5578388 276.589176,25.1507877 Z M258.034911,16.3060117 C256.503126,17.689559 255.605481,19.5013199 255.341948,21.7413489 L272.142082,21.7413489 C271.878549,19.5342615 270.980904,17.7307358 269.449119,16.3307177 C267.917335,14.9306996 266.014986,14.2307011 263.742015,14.2307011 C261.469044,14.2307011 259.566695,14.9224644 258.034911,16.3060117 Z" id="Style" fill-opacity="0.879557292" fill="#919D9D"></path>
    </g>
</svg>