<svg id="Layer_1" data-name="Layer 1" xmlns="http://www.w3.org/2000/svg" viewBox="0 0 960.88 270.62"><defs><style>.cls-1{fill:#3cf;}.cls-2{fill:#919d9d;}</style></defs><title>CanGfy </title><path class="cls-1" d="M587.91,103q-7.21-9.43-19.73-14.76T536.1,82.94a69.47,69.47,0,0,0-30.2,7,52.26,52.26,0,0,0-12.45,8.31,56,56,0,0,0-12.3,16.41,128.83,128.83,0,0,1-46.61,50.68v74.06a25.69,25.69,0,0,0,25.69,25.69h23v-93q0-27.1,8.92-38.94T521,121.37q17.5,0,24.36,10.81T552.22,165v75.13a25.06,25.06,0,0,0,25.06,25h23.66V156A143.22,143.22,0,0,0,598,126,57.2,57.2,0,0,0,587.91,103Z"/><path class="cls-1" d="M434.54,87.75v60.79a128.09,128.09,0,0,0,35.17-60.79Z"/><path class="cls-1" d="M159.14,210.45l-.11.13c-.8.87-1.64,1.69-2.49,2.48-1.81,1.87-3.57,3.79-5.26,5.77q-2.82,3.81-5.89,7.4A128.29,128.29,0,0,1,84,265.89a133.86,133.86,0,0,0,35.61,4.73h.8c1.33,0,2.63,0,3.94-.07A118.93,118.93,0,0,0,162,263.76a96.14,96.14,0,0,0,32.93-19.9,99.42,99.42,0,0,0,22.65-31.56,121.81,121.81,0,0,0,10.09-36.54,127.66,127.66,0,0,0-56.53,24.39A130.2,130.2,0,0,0,159.14,210.45Z"/><path class="cls-1" d="M120.43,225.68q-18.2,0-30.88-7A58.83,58.83,0,0,1,69,199.94,81,81,0,0,1,57.47,173.7a124.79,124.79,0,0,1-3.6-30,134.25,134.25,0,0,1,3.6-31.23,88.1,88.1,0,0,1,5.37-15.82c.44-1,.89-1.91,1.36-2.85a.8.8,0,0,1,.08-.16c.44-.87.89-1.74,1.35-2.59l.45-.78c.37-.66.74-1.32,1.13-2,.57-.94,1.15-1.86,1.75-2.77A58.35,58.35,0,0,1,89.55,66.65q12.69-7,30.88-7c.56,0,1.12,0,1.68,0h0A56.07,56.07,0,0,1,155.77,72a54.55,54.55,0,0,1,12,13.56h0l.09.15a34.75,34.75,0,0,0,29.48,16.83h28.76q-2.42-21.27-11.67-37.74a95.44,95.44,0,0,0-10.63-15.27,88.94,88.94,0,0,0-12.87-12.35,103.84,103.84,0,0,0-32.25-17,123.45,123.45,0,0,0-38.26-5.84q-28.14,0-50.61,10A113.42,113.42,0,0,0,49.24,36.06h-.06c-.35.25-.69.52-1,.78l-1.24.94c-.87.67-1.73,1.35-2.57,2l-1.2,1c-.86.72-1.7,1.46-2.54,2.21L39.54,44c-1.15,1.06-2.29,2.15-3.4,3.26l-.25.24q-2,2.09-4,4.27c-1.06,1.2-2.08,2.44-3.08,3.68-.35.42-.7.85-1,1.28h0a124.12,124.12,0,0,0-19.56,36,153.12,153.12,0,0,0-8.23,51A148,148,0,0,0,8.23,193.6a119.21,119.21,0,0,0,23.68,40.31,103.92,103.92,0,0,0,17.66,15.62,127.55,127.55,0,0,0,73-23.89C121.84,225.65,121.15,225.68,120.43,225.68Z"/><path class="cls-1" d="M245.83,195.92l0,0Z"/><path class="cls-1" d="M245,198.19a2.41,2.41,0,0,0,.08-.25A2.41,2.41,0,0,1,245,198.19Z"/><path class="cls-1" d="M243.79,202.74l.06-.26Z"/><path class="cls-1" d="M244.35,200.45l.09-.33Z"/><path class="cls-1" d="M244.44,200.12c.18-.66.38-1.3.58-1.93C244.82,198.82,244.62,199.46,244.44,200.12Z"/><path class="cls-1" d="M243.85,202.48c.15-.69.32-1.37.5-2C244.17,201.11,244,201.79,243.85,202.48Z"/><path class="cls-1" d="M243,207.44h0c.21-1.63.48-3.19.81-4.7C243.46,204.25,243.18,205.82,243,207.44Z"/><path class="cls-1" d="M245.1,197.94c.23-.69.48-1.36.73-2C245.58,196.58,245.33,197.25,245.1,197.94Z"/><path class="cls-1" d="M299.86,196a32.38,32.38,0,0,1,9.26-4.63,89.14,89.14,0,0,1,10.81-2.75c3.88-.68,7.78-1.25,11.67-1.71A213.84,213.84,0,0,0,354.42,182l.22-.06c14.69-4,33-10.67,44.18-20.87A25.38,25.38,0,0,0,409,140.75v-7.36a51,51,0,0,0-2.81-17.69,33.6,33.6,0,0,0-4.39-8.24,49.52,49.52,0,0,0-18.54-15.27,83.22,83.22,0,0,0-25-7.38c-4.58-.62-9.13-1.1-13.63-1.41-1.13-.07-2.26-.15-3.39-.21q-5.07-.27-10.08-.27c-2.41,0-4.84.06-7.25.18a150.41,150.41,0,0,0-22,2.74,83.64,83.64,0,0,0-26.24,9.78,58.58,58.58,0,0,0-19.21,18.18q-7.56,11.34-8.58,28.49h0v0h30.64a24.57,24.57,0,0,0,21.68-13.4,20.88,20.88,0,0,1,6-7.19q7.21-5.4,19.14-6.07c1.1-.07,2.21-.1,3.37-.1,2.17,0,4.29.07,6.31.2s4.07.36,6,.64a27.33,27.33,0,0,1,10,3.44,18.83,18.83,0,0,1,6.86,7.21,16,16,0,0,1,1.12,2.51,30.21,30.21,0,0,1,1.45,10c.22,5-1.27,8.86-4.46,11.49s-7.56,4.64-13,6a132.24,132.24,0,0,1-18.87,3.09q-10.64,1-21.62,2.74a202.94,202.94,0,0,0-21.78,4.64,65,65,0,0,0-13.07,5,58.25,58.25,0,0,0-6.15,3.7,44.74,44.74,0,0,0-13.73,15.61,37.88,37.88,0,0,0-1.85,4l0,0c-.25.66-.5,1.33-.73,2a2.41,2.41,0,0,1-.08.25c-.2.63-.4,1.27-.58,1.93l-.09.33c-.18.66-.35,1.34-.5,2l-.06.26c-.33,1.51-.6,3.07-.81,4.7-.12.95-.23,1.92-.31,2.92-.18,2-.27,4.17-.27,6.39q0,13.74,4.62,23.68a44.87,44.87,0,0,0,12.88,16.48,54.22,54.22,0,0,0,19.21,9.6,85.74,85.74,0,0,0,21.11,3.05c.81,0,1.61,0,2.42,0,2.07,0,4.12-.06,6.16-.16l2.05-.14q3.19-.23,6.36-.65A111.28,111.28,0,0,0,335,264.79a63.38,63.38,0,0,0,27.34-16.7l.08-.08,0,0a1.49,1.49,0,0,0,0,.21,25.63,25.63,0,0,0,23.91,16.95H409V177.82A127,127,0,0,0,370,195.3l-.74.49a25.65,25.65,0,0,0-10.74,17.58c.06-.5.13-1,.22-1.48a38.56,38.56,0,0,1-3.77,9.16,32.08,32.08,0,0,1-11.67,11.49,33.1,33.1,0,0,1-12.57,4.14c-1.49.22-3,.39-4.69.5s-3.37.16-5.17.16h-.11c-.83,0-1.66,0-2.49-.06-.54,0-1.06,0-1.59-.09a.23.23,0,0,1-.14,0l-1.13-.08c-.36,0-.72,0-1.08-.1l-1.88-.24c-.46-.06-.92-.12-1.38-.21l-1.38-.23a27.52,27.52,0,0,1-9.61-3.6,18.4,18.4,0,0,1-6.52-7.05,22.76,22.76,0,0,1-2.4-11,23.69,23.69,0,0,1,2.4-11.33v0A22.3,22.3,0,0,1,299.86,196Z"/><path class="cls-1" d="M913.09,71.48,913,72Z"/><path class="cls-1" d="M913.44,67.28a25.51,25.51,0,0,1-.35,4.2A23.27,23.27,0,0,0,913.44,67.28Z"/><path class="cls-1" d="M913,72c0,.06,0,.12,0,.18S913,72.06,913,72Z"/><path class="cls-2" d="M750.65,89.69v56.39c-15.31,12.21-36.85,20.42-57.72,20.42-45.06,0-81-34.85-81-78.59S648.09,9.77,693.82,9.77A88,88,0,0,1,751.1,31.08L740.89,44.4a71.45,71.45,0,0,0-47.07-18c-35.52,0-63.93,27.3-63.93,61.49,0,34.41,28.63,61.72,64.15,61.72,14,0,28.86-4.89,40.85-13.1V89.69Z"/><path class="cls-2" d="M811.92,37.07v15.1h33.53V66.38H811.92v99.23H794.83V66.38h-15.1V52.17h15.1V39.29c0-25.53,18-39.29,37.52-39.29,8.88.22,18,2.89,25.08,8.21l-7.1,14a31.65,31.65,0,0,0-17.76-6C821.25,16.21,811.92,23.53,811.92,37.07Z"/><path class="cls-2" d="M907.16,182.26c-7.33,18-19.54,27.31-35.08,27.31a37.14,37.14,0,0,1-24.64-8.66l7.33-14.43A27.65,27.65,0,0,0,871.2,192c9.1,0,16.65-5.55,21.31-16.43l4.88-10.88L849,48.62H867.2l38.85,96.57,37.07-96.57h17.76Z"/></svg>