<svg id="Layer_1" data-name="Layer 1" xmlns="http://www.w3.org/2000/svg" viewBox="0 0 1068.45 266.65"><defs><style>.cls-1{fill:#3cf;}.cls-2{fill:#919d9d;}</style></defs><title>CanGive </title><path class="cls-1" d="M587.91,99.05q-7.21-9.43-19.73-14.76T536.1,79a69.47,69.47,0,0,0-30.2,7,52.26,52.26,0,0,0-12.45,8.31,56.1,56.1,0,0,0-12.3,16.4,128.85,128.85,0,0,1-46.61,50.69v74.06a25.69,25.69,0,0,0,25.69,25.69h23v-93q0-27.1,8.92-38.94T521,117.4q17.5,0,24.36,10.81T552.22,161v75.13a25.06,25.06,0,0,0,25.06,25.05h23.66V152.06A143.22,143.22,0,0,0,598,122,57.2,57.2,0,0,0,587.91,99.05Z"/><path class="cls-1" d="M434.54,83.78v60.79a128.09,128.09,0,0,0,35.17-60.79Z"/><path class="cls-1" d="M159.14,206.48l-.11.13c-.8.87-1.64,1.69-2.49,2.48-1.81,1.87-3.57,3.79-5.26,5.77q-2.82,3.81-5.89,7.4A128.29,128.29,0,0,1,84,261.92a133.46,133.46,0,0,0,35.61,4.72h.8c1.33,0,2.63,0,3.94-.07A118.93,118.93,0,0,0,162,259.79a96.14,96.14,0,0,0,32.93-19.9,99.42,99.42,0,0,0,22.65-31.56,121.81,121.81,0,0,0,10.09-36.54,127.66,127.66,0,0,0-56.53,24.39A130.2,130.2,0,0,0,159.14,206.48Z"/><path class="cls-1" d="M120.43,221.71q-18.2,0-30.88-7A58.83,58.83,0,0,1,69,196a81,81,0,0,1-11.49-26.24,124.79,124.79,0,0,1-3.6-30,134.25,134.25,0,0,1,3.6-31.23,88.1,88.1,0,0,1,5.37-15.82c.44-1,.89-1.91,1.36-2.85a.8.8,0,0,1,.08-.16c.44-.87.89-1.74,1.35-2.59l.45-.78c.37-.66.74-1.32,1.13-2,.57-.94,1.15-1.86,1.75-2.77A58.35,58.35,0,0,1,89.55,62.68q12.69-7,30.88-7c.56,0,1.12,0,1.68,0h0A56.07,56.07,0,0,1,155.77,68a54.55,54.55,0,0,1,12,13.56h0l.09.15a34.75,34.75,0,0,0,29.48,16.83h28.76q-2.42-21.27-11.67-37.74a95.44,95.44,0,0,0-10.63-15.27,88.94,88.94,0,0,0-12.87-12.35,103.84,103.84,0,0,0-32.25-17,123.45,123.45,0,0,0-38.26-5.84q-28.14,0-50.61,10A113.42,113.42,0,0,0,49.24,32.09h-.06c-.35.25-.69.52-1,.78l-1.24.94c-.87.67-1.73,1.35-2.57,2l-1.2,1c-.86.72-1.7,1.46-2.54,2.21L39.54,40c-1.15,1.06-2.29,2.15-3.4,3.26l-.25.24q-2,2.09-4,4.27c-1.06,1.2-2.08,2.44-3.08,3.68-.35.42-.7.85-1,1.28h0a124.12,124.12,0,0,0-19.56,36,153.12,153.12,0,0,0-8.23,51,148,148,0,0,0,8.23,49.92,119.21,119.21,0,0,0,23.68,40.31,103.92,103.92,0,0,0,17.66,15.62,127.55,127.55,0,0,0,73-23.89C121.84,221.68,121.15,221.71,120.43,221.71Z"/><path class="cls-1" d="M245.83,192l0,0Z"/><path class="cls-1" d="M245,194.22a2.41,2.41,0,0,0,.08-.25A2.41,2.41,0,0,1,245,194.22Z"/><path class="cls-1" d="M243.79,198.77l.06-.26Z"/><path class="cls-1" d="M244.35,196.48l.09-.33Z"/><path class="cls-1" d="M244.44,196.15c.18-.66.38-1.3.58-1.93C244.82,194.85,244.62,195.49,244.44,196.15Z"/><path class="cls-1" d="M243.85,198.51c.15-.69.32-1.37.5-2C244.17,197.14,244,197.82,243.85,198.51Z"/><path class="cls-1" d="M243,203.47h0c.21-1.63.48-3.19.81-4.7C243.46,200.28,243.18,201.85,243,203.47Z"/><path class="cls-1" d="M245.1,194c.23-.69.48-1.36.73-2C245.58,192.61,245.33,193.28,245.1,194Z"/><path class="cls-1" d="M299.86,192a32.38,32.38,0,0,1,9.26-4.63,89.14,89.14,0,0,1,10.81-2.75c3.88-.68,7.78-1.25,11.67-1.71A213.84,213.84,0,0,0,354.42,178l.22-.06c14.69-4,33-10.67,44.18-20.87A25.38,25.38,0,0,0,409,136.78v-7.36a51,51,0,0,0-2.81-17.69,33.6,33.6,0,0,0-4.39-8.24,49.52,49.52,0,0,0-18.54-15.27,83.22,83.22,0,0,0-25-7.38c-4.58-.62-9.13-1.1-13.63-1.41-1.13-.07-2.26-.15-3.39-.21Q336.14,79,331.13,79c-2.41,0-4.84.06-7.25.18a150.41,150.41,0,0,0-22,2.74,83.64,83.64,0,0,0-26.24,9.78,58.58,58.58,0,0,0-19.21,18.18q-7.56,11.34-8.58,28.49h0v0h30.64a24.57,24.57,0,0,0,21.68-13.4,20.88,20.88,0,0,1,6-7.19q7.21-5.4,19.14-6.07c1.1-.07,2.21-.1,3.37-.1,2.17,0,4.29.07,6.31.2s4.07.36,6,.64a27.33,27.33,0,0,1,10,3.44,18.83,18.83,0,0,1,6.86,7.21,16,16,0,0,1,1.12,2.51,30.21,30.21,0,0,1,1.45,10c.22,5-1.27,8.86-4.46,11.49s-7.56,4.64-13,6a132.24,132.24,0,0,1-18.87,3.09q-10.64,1-21.62,2.74a202.94,202.94,0,0,0-21.78,4.64,65,65,0,0,0-13.07,5,58.25,58.25,0,0,0-6.15,3.7,44.74,44.74,0,0,0-13.73,15.61,37,37,0,0,0-1.85,4l0,0c-.25.66-.5,1.33-.73,2a2.41,2.41,0,0,1-.08.25c-.2.63-.4,1.27-.58,1.93l-.09.33c-.18.66-.35,1.34-.5,2l-.06.26c-.33,1.51-.6,3.07-.81,4.7-.12.95-.23,1.92-.31,2.92-.18,2.05-.27,4.17-.27,6.39q0,13.74,4.62,23.68a44.87,44.87,0,0,0,12.88,16.48,54.22,54.22,0,0,0,19.21,9.6,85.74,85.74,0,0,0,21.11,3c.81,0,1.61,0,2.42,0,2.07,0,4.12-.06,6.16-.16l2.05-.14q3.19-.22,6.36-.65A111.28,111.28,0,0,0,335,260.82a63.48,63.48,0,0,0,27.34-16.7l.08-.08,0,0a1.49,1.49,0,0,0,0,.21,25.63,25.63,0,0,0,23.91,17H409V173.85A127,127,0,0,0,370,191.33l-.74.49a25.65,25.65,0,0,0-10.74,17.58c.06-.5.13-1,.22-1.48a38.56,38.56,0,0,1-3.77,9.16,32.08,32.08,0,0,1-11.67,11.49,33.1,33.1,0,0,1-12.57,4.14c-1.49.22-3,.39-4.69.5s-3.37.16-5.17.16h-.11c-.83,0-1.66,0-2.49-.06-.54,0-1.06,0-1.59-.09a.23.23,0,0,1-.14,0l-1.13-.08c-.36,0-.72,0-1.08-.1l-1.88-.24c-.46-.06-.92-.12-1.38-.21l-1.38-.23a27.52,27.52,0,0,1-9.61-3.6,18.4,18.4,0,0,1-6.52-7.05,22.76,22.76,0,0,1-2.4-11,23.69,23.69,0,0,1,2.4-11.33v0A22.3,22.3,0,0,1,299.86,192Z"/><path class="cls-1" d="M913.09,67.51,913,68Z"/><path class="cls-1" d="M913.44,63.31a25.51,25.51,0,0,1-.35,4.2A23.27,23.27,0,0,0,913.44,63.31Z"/><path class="cls-1" d="M913,68c0,.06,0,.12,0,.18S913,68.09,913,68Z"/><path class="cls-2" d="M760.87,86.58V143c-15.32,12.21-36.85,20.42-57.72,20.42-45.07,0-81-34.85-81-78.59S658.3,6.66,704,6.66A88,88,0,0,1,761.31,28L751.1,41.29a71.43,71.43,0,0,0-47.07-18c-35.51,0-63.93,27.31-63.93,61.49,0,34.41,28.64,61.72,64.16,61.72,14,0,28.86-4.88,40.85-13.1V86.58Z"/><path class="cls-2" d="M821.25,12c0,6.88-4.89,12-11.32,12s-11.32-5.11-11.32-12,4.88-12,11.32-12S821.25,5.11,821.25,12ZM801.49,162.5v-117h17.09v117Z"/><path class="cls-2" d="M887,162.5l-46.4-117H859l37.29,99,37.08-99H950.9l-46,117Z"/><path class="cls-2" d="M1068.33,110.78H972.87c3.11,22.86,19.76,37.29,42.4,37.29,14.43,0,27.09-5.1,36.19-14.65l9.55,10.21c-11.1,12.44-27.53,19.54-47.07,19.54-34.41,0-58.16-24.2-58.16-59s24-59,57.94-59C1051.46,44.84,1070.11,71,1068.33,110.78Zm-15.54-14.21c-1.11-22.42-16.2-36.63-39.07-36.63-22.2,0-38.18,14.43-40.85,36.63Z"/></svg>