<svg id="Layer_1" data-name="Layer 1" xmlns="http://www.w3.org/2000/svg" viewBox="0 0 1352.92 271.56"><defs><style>.cls-1{fill:#3cf;}.cls-2{fill:#919d9d;}</style></defs><title>CanLedger </title><path class="cls-1" d="M587.91,104q-7.21-9.43-19.73-14.76T536.1,83.88a69.47,69.47,0,0,0-30.2,7,52.26,52.26,0,0,0-12.45,8.31,56,56,0,0,0-12.3,16.41,128.83,128.83,0,0,1-46.61,50.68v74.07a25.69,25.69,0,0,0,25.69,25.68h23v-93q0-27.09,8.92-38.94T521,122.31q17.5,0,24.36,10.81t6.86,32.77V241a25.05,25.05,0,0,0,25.06,25h23.66V157A143.22,143.22,0,0,0,598,127,57.2,57.2,0,0,0,587.91,104Z"/><path class="cls-1" d="M434.54,88.69v60.79a128.09,128.09,0,0,0,35.17-60.79Z"/><path class="cls-1" d="M159.14,211.39l-.11.13c-.8.87-1.64,1.69-2.49,2.48-1.81,1.87-3.57,3.79-5.26,5.77q-2.82,3.81-5.89,7.4A128.29,128.29,0,0,1,84,266.83a133.86,133.86,0,0,0,35.61,4.73h.8c1.33,0,2.63,0,3.94-.07A118.93,118.93,0,0,0,162,264.7a96.14,96.14,0,0,0,32.93-19.9,99.42,99.42,0,0,0,22.65-31.56,121.81,121.81,0,0,0,10.09-36.54,127.66,127.66,0,0,0-56.53,24.39A130.2,130.2,0,0,0,159.14,211.39Z"/><path class="cls-1" d="M120.43,226.62q-18.2,0-30.88-7A58.83,58.83,0,0,1,69,200.88a81,81,0,0,1-11.49-26.24,124.79,124.79,0,0,1-3.6-30,134.25,134.25,0,0,1,3.6-31.23,88.1,88.1,0,0,1,5.37-15.82c.44-1,.89-1.91,1.36-2.85a1.19,1.19,0,0,1,.08-.16c.44-.87.89-1.74,1.35-2.59l.45-.78c.37-.66.74-1.32,1.13-2,.57-.94,1.15-1.86,1.75-2.77A58.35,58.35,0,0,1,89.55,67.59q12.69-7,30.88-7c.56,0,1.12,0,1.68,0h0A56.07,56.07,0,0,1,155.77,72.9a54.55,54.55,0,0,1,12,13.56h0l.09.15a34.75,34.75,0,0,0,29.48,16.83h28.76Q223.7,82.17,214.44,65.7a95.44,95.44,0,0,0-10.63-15.27,88.94,88.94,0,0,0-12.87-12.35,103.84,103.84,0,0,0-32.25-17,123.45,123.45,0,0,0-38.26-5.84q-28.14,0-50.61,10A113.42,113.42,0,0,0,49.24,37h-.06c-.35.25-.69.53-1,.78l-1.24.94c-.87.67-1.73,1.35-2.57,2l-1.2,1c-.86.72-1.7,1.46-2.54,2.21l-1.05.94C38.39,46,37.25,47,36.14,48.15l-.25.24q-2,2.09-4,4.27c-1.06,1.2-2.08,2.44-3.08,3.68-.35.43-.7.85-1,1.28h0a124.12,124.12,0,0,0-19.56,36,153.12,153.12,0,0,0-8.23,51,148,148,0,0,0,8.23,49.92,119.21,119.21,0,0,0,23.68,40.31,103.92,103.92,0,0,0,17.66,15.62,127.55,127.55,0,0,0,73-23.89C121.84,226.6,121.15,226.62,120.43,226.62Z"/><path class="cls-1" d="M245.83,196.86l0,0Z"/><path class="cls-1" d="M245,199.13a2.41,2.41,0,0,0,.08-.25A2.41,2.41,0,0,1,245,199.13Z"/><path class="cls-1" d="M243.79,203.68l.06-.26Z"/><path class="cls-1" d="M244.35,201.39l.09-.33Z"/><path class="cls-1" d="M244.44,201.06c.18-.66.38-1.3.58-1.93C244.82,199.76,244.62,200.4,244.44,201.06Z"/><path class="cls-1" d="M243.85,203.42c.15-.69.32-1.37.5-2C244.17,202.05,244,202.73,243.85,203.42Z"/><path class="cls-1" d="M243,208.39h0c.21-1.63.48-3.19.81-4.7C243.46,205.19,243.18,206.76,243,208.39Z"/><path class="cls-1" d="M245.1,198.88c.23-.69.48-1.36.73-2C245.58,197.52,245.33,198.19,245.1,198.88Z"/><path class="cls-1" d="M299.86,196.92a32.38,32.38,0,0,1,9.26-4.63,89.14,89.14,0,0,1,10.81-2.75c3.88-.68,7.78-1.25,11.67-1.7a215.6,215.6,0,0,0,22.82-4.92l.22-.06c14.69-4,33-10.67,44.18-20.87A25.38,25.38,0,0,0,409,141.69v-7.36a51,51,0,0,0-2.81-17.69,33.6,33.6,0,0,0-4.39-8.24,49.52,49.52,0,0,0-18.54-15.27,83.22,83.22,0,0,0-25-7.38c-4.58-.62-9.13-1.1-13.63-1.41-1.13-.07-2.26-.15-3.39-.21q-5.07-.27-10.08-.27c-2.41,0-4.84.06-7.25.18a150.41,150.41,0,0,0-22,2.74,83.64,83.64,0,0,0-26.24,9.78,58.5,58.5,0,0,0-19.21,18.19q-7.56,11.32-8.58,28.48h0v0h30.64a24.57,24.57,0,0,0,21.68-13.4,20.88,20.88,0,0,1,6-7.19q7.21-5.4,19.14-6.07c1.1-.07,2.21-.1,3.37-.1,2.17,0,4.29.07,6.31.21s4.07.35,6,.63a27.33,27.33,0,0,1,10,3.44,18.83,18.83,0,0,1,6.86,7.21,16,16,0,0,1,1.12,2.51,30.21,30.21,0,0,1,1.45,10c.22,5-1.27,8.86-4.46,11.49s-7.56,4.64-13,6a132.24,132.24,0,0,1-18.87,3.09q-10.64,1-21.62,2.74a202.94,202.94,0,0,0-21.78,4.64,65,65,0,0,0-13.07,5,58.25,58.25,0,0,0-6.15,3.7A44.74,44.74,0,0,0,247.7,192.8a37.88,37.88,0,0,0-1.85,4l0,0c-.25.66-.5,1.33-.73,2a2.41,2.41,0,0,1-.08.25c-.2.63-.4,1.27-.58,1.93l-.09.33c-.18.66-.35,1.34-.5,2l-.06.26c-.33,1.51-.6,3.07-.81,4.7-.12,1-.23,1.92-.31,2.92-.18,2-.27,4.17-.27,6.39q0,13.74,4.62,23.69a44.92,44.92,0,0,0,12.88,16.47,54.22,54.22,0,0,0,19.21,9.6,85.74,85.74,0,0,0,21.11,3.05c.81,0,1.61,0,2.42,0,2.07,0,4.12-.06,6.16-.16l2.05-.14q3.19-.23,6.36-.65A111.28,111.28,0,0,0,335,265.73,63.38,63.38,0,0,0,362.37,249l.08-.08,0,0a1.49,1.49,0,0,0,0,.21,25.62,25.62,0,0,0,23.91,16.95H409V178.76A127.2,127.2,0,0,0,370,196.24l-.74.49a25.65,25.65,0,0,0-10.74,17.58c.06-.5.13-1,.22-1.48a38.56,38.56,0,0,1-3.77,9.16,32.08,32.08,0,0,1-11.67,11.49,33.1,33.1,0,0,1-12.57,4.14c-1.49.22-3,.39-4.69.5s-3.37.16-5.17.16h-.11c-.83,0-1.66,0-2.49-.06-.54,0-1.06,0-1.59-.09a.23.23,0,0,1-.14,0c-.38,0-.76-.05-1.13-.08s-.72,0-1.08-.1l-1.88-.24c-.46-.06-.92-.12-1.38-.21s-.92-.14-1.38-.23a27.52,27.52,0,0,1-9.61-3.6,18.4,18.4,0,0,1-6.52-7,22.76,22.76,0,0,1-2.4-11,23.69,23.69,0,0,1,2.4-11.33v0A22.3,22.3,0,0,1,299.86,196.92Z"/><path class="cls-1" d="M913.09,72.42l-.09.52Z"/><path class="cls-1" d="M913.44,68.22a25.51,25.51,0,0,1-.35,4.2A23.19,23.19,0,0,0,913.44,68.22Z"/><path class="cls-1" d="M913,72.94c0,.06,0,.12,0,.18S913,73,913,72.94Z"/><path class="cls-2" d="M714.23,147.85v16.87H628.32V9.32h17.76V147.85Z"/><path class="cls-2" d="M841.44,113H746c3.1,22.86,19.75,37.29,42.4,37.29,14.43,0,27.08-5.1,36.18-14.65l9.55,10.21c-11.1,12.44-27.53,19.54-47.06,19.54-34.41,0-58.17-24.2-58.17-59s24-59,57.94-59C824.56,47.06,843.21,73.26,841.44,113ZM825.9,98.79c-1.11-22.42-16.21-36.63-39.08-36.63-22.2,0-38.18,14.43-40.84,36.63Z"/><path class="cls-2" d="M978.63,164.72H961.32V139.64c-8.66,16.43-24.65,26-45.51,26-33.3,0-56.39-24.64-56.39-59.49,0-35.08,23.09-59.28,56.16-59.28,20.87,0,37.08,9.55,45.74,26.2V0h17.31Zm-17.31-58.16c0-25.53-17.54-44-42.18-44-24.87,0-42.41,18.43-42.41,44,0,25.31,17.54,43.51,42.41,43.51C943.78,150.07,961.32,131.87,961.32,106.56Z"/><path class="cls-2" d="M1123.82,152.51c0,34.19-23.31,55.73-58.83,55.73-18.43-.23-33.75-6.22-48-16.88l8-13.32c11.54,9.55,23.75,14.66,39.29,14.88,25.53,0,42.18-15.54,42.18-40V135.2c-8.21,15.54-23.31,24.42-43.07,24.42-31.52,0-53.28-23.31-53.28-56.61,0-32.64,21.54-55.72,52.84-55.95,20,0,35.07,8.88,43.51,24.42V47.73h17.32Zm-17.32-48.84c0-24.42-16.65-41.51-40-41.51-23.53,0-40,17.32-40.18,41.51.22,24,16.65,41.3,40.18,41.3C1089.85,145,1106.5,127.65,1106.5,103.67Z"/><path class="cls-2" d="M1263.9,113h-95.46c3.1,22.86,19.75,37.29,42.4,37.29,14.43,0,27.08-5.1,36.18-14.65l9.55,10.21c-11.1,12.44-27.53,19.54-47.06,19.54-34.41,0-58.17-24.2-58.17-59s24-59,57.94-59C1247,47.06,1265.67,73.26,1263.9,113Zm-15.54-14.21c-1.11-22.42-16.21-36.63-39.08-36.63-22.2,0-38.18,14.43-40.84,36.63Z"/><path class="cls-2" d="M1311,73.7c7.77-17.09,22.2-26.41,42-26.64V64.6c-24.64-.44-40,14.88-42,38v62.16h-17.32v-117H1311Z"/></svg>