<svg xmlns="http://www.w3.org/2000/svg" viewBox="0 0 1397.56 266.21"><defs><style>.cls-1{fill:#919d9d;}.cls-2{fill:#3cf;}</style></defs><title>CanServices</title><g id="Layer_2" data-name="Layer 2"><g id="Layer_1-2" data-name="Layer 1"><path class="cls-1" d="M646.52,139.51q-13.85-4.62-21.75-12l7-14.7a57.6,57.6,0,0,0,19.31,11,70.82,70.82,0,0,0,24.21,4.24q16.38,0,24.49-5.56t8.1-14.79a14.58,14.58,0,0,0-4.43-11,29.67,29.67,0,0,0-10.93-6.5Q686,88,674.13,85.16a191.19,191.19,0,0,1-24-7.16,39.73,39.73,0,0,1-15.63-11Q628,59.54,628,46.91a33.92,33.92,0,0,1,5.56-19q5.55-8.47,16.86-13.56t28.07-5.09a88.79,88.79,0,0,1,23,3,61.09,61.09,0,0,1,19.41,8.66L714.63,36a68.43,68.43,0,0,0-17.71-8,66.11,66.11,0,0,0-18.46-2.73q-16,0-24,5.84t-8,15.07a14.44,14.44,0,0,0,4.52,11,31.49,31.49,0,0,0,11.21,6.59,175.46,175.46,0,0,0,18.18,5,184.58,184.58,0,0,1,23.93,7.15,40.26,40.26,0,0,1,15.54,10.93q6.51,7.35,6.5,19.78a33.68,33.68,0,0,1-5.65,18.94q-5.65,8.56-17.14,13.56t-28.26,5A90.23,90.23,0,0,1,646.52,139.51Z"/><path class="cls-1" d="M841,98.72H760a31.35,31.35,0,0,0,11.59,21.2q9.89,8,24.58,8,17.91,0,28.83-12.06l10,11.69a43.72,43.72,0,0,1-16.86,12,58.54,58.54,0,0,1-22.51,4.15q-15.82,0-28.07-6.5a46.37,46.37,0,0,1-18.94-18.18A52.12,52.12,0,0,1,742,92.69a52.88,52.88,0,0,1,6.5-26.19,46.6,46.6,0,0,1,17.89-18.18,51,51,0,0,1,25.72-6.5,50,50,0,0,1,25.53,6.5A45.77,45.77,0,0,1,835.11,66.5q6.32,11.69,6.31,26.76A52.27,52.27,0,0,1,841,98.72ZM770.3,65Q761.54,72.91,760,85.72h64.06a32.16,32.16,0,0,0-10.27-20.63q-8.76-8-21.76-8T770.3,65Z"/><path class="cls-1" d="M897.75,46.35q9.22-4.53,22.42-4.53V59.35a34.37,34.37,0,0,0-4.14-.19q-14.7,0-23.08,8.76t-8.39,25v49.74H866.48V42.77h17.33V59.53A30.88,30.88,0,0,1,897.75,46.35Z"/><path class="cls-1" d="M1034.9,42.77l-43.71,99.85H972.73L929,42.77h18.84l34.29,80.07,35-80.07Z"/><path class="cls-1" d="M1052.14,20.16a11.1,11.1,0,0,1-3.49-8.29,11.39,11.39,0,0,1,3.49-8.38A11.85,11.85,0,0,1,1060.9,0a12.26,12.26,0,0,1,8.76,3.3,10.83,10.83,0,0,1,3.48,8.19,11.65,11.65,0,0,1-3.48,8.57,11.88,11.88,0,0,1-8.76,3.49A12,12,0,0,1,1052.14,20.16Zm-.28,22.61h18.08v99.85h-18.08Z"/><path class="cls-1" d="M1120.71,137.15A48.24,48.24,0,0,1,1102,119a51,51,0,0,1-6.78-26.28A51.06,51.06,0,0,1,1102,66.41a47.75,47.75,0,0,1,18.74-18.09,56.15,56.15,0,0,1,27.23-6.5,52.31,52.31,0,0,1,24.21,5.47,38.94,38.94,0,0,1,16.48,15.82L1174.88,72a30.83,30.83,0,0,0-11.68-10.74,33.29,33.29,0,0,0-15.45-3.58A35.72,35.72,0,0,0,1130.13,62a30.93,30.93,0,0,0-12.24,12.34,37.38,37.38,0,0,0-4.43,18.37,37.74,37.74,0,0,0,4.43,18.56,30.86,30.86,0,0,0,12.24,12.34,35.72,35.72,0,0,0,17.62,4.33,33.29,33.29,0,0,0,15.45-3.58,30.67,30.67,0,0,0,11.68-10.74l13.75,8.67a39.47,39.47,0,0,1-16.48,15.92,51.49,51.49,0,0,1-24.21,5.56A55.43,55.43,0,0,1,1120.71,137.15Z"/><path class="cls-1" d="M1300.35,98.72h-81a31.35,31.35,0,0,0,11.59,21.2q9.88,8,24.58,8,17.9,0,28.83-12.06l10,11.69a43.72,43.72,0,0,1-16.86,12,58.54,58.54,0,0,1-22.51,4.15q-15.83,0-28.07-6.5a46.37,46.37,0,0,1-18.94-18.18,52.13,52.13,0,0,1-6.69-26.38,53,53,0,0,1,6.5-26.19,46.7,46.7,0,0,1,17.9-18.18,51,51,0,0,1,25.72-6.5,50,50,0,0,1,25.53,6.5,45.77,45.77,0,0,1,17.52,18.18,55.5,55.5,0,0,1,6.31,26.76A52.27,52.27,0,0,1,1300.35,98.72ZM1229.61,65q-8.76,7.91-10.27,20.72h64.06a32.16,32.16,0,0,0-10.27-20.63q-8.76-8-21.76-8T1229.61,65Z"/><path class="cls-1" d="M1330.87,140.45q-11.3-3.3-17.71-8.38l7.54-14.32a53.89,53.89,0,0,0,16,7.53,65.68,65.68,0,0,0,19,2.83q23.74,0,23.74-13.56a8.79,8.79,0,0,0-3.2-7.16,20.38,20.38,0,0,0-8-3.87q-4.8-1.22-13.66-2.73a133.57,133.57,0,0,1-19.69-4.33,30.36,30.36,0,0,1-13.09-8.29q-5.47-5.83-5.47-16.39,0-13.56,11.31-21.76t30.33-8.2a83.7,83.7,0,0,1,20,2.45,53.92,53.92,0,0,1,16.39,6.6l-7.72,14.32q-12.26-7.92-28.83-7.92-11.49,0-17.52,3.77t-6,10a9.51,9.51,0,0,0,3.39,7.72A21.53,21.53,0,0,0,1346,82.9q5,1.32,14,3a151.9,151.9,0,0,1,19.5,4.43,29.21,29.21,0,0,1,12.72,8q5.26,5.66,5.27,15.83,0,13.56-11.58,21.57t-31.56,8A83.65,83.65,0,0,1,1330.87,140.45Z"/><path class="cls-2" d="M587.91,98.6q-7.21-9.43-19.73-14.75T536.1,78.53a69.6,69.6,0,0,0-30.2,7,52.29,52.29,0,0,0-12.45,8.32,56.1,56.1,0,0,0-12.3,16.4A128.76,128.76,0,0,1,434.54,161V235a25.69,25.69,0,0,0,25.69,25.69h23v-93q0-27.11,8.92-38.94T521,117q17.5,0,24.36,10.8t6.86,32.77v75.13a25.06,25.06,0,0,0,25.06,25.06h23.66V151.61a143.29,143.29,0,0,0-2.91-30A57.26,57.26,0,0,0,587.91,98.6Z"/><path class="cls-2" d="M434.54,83.33v60.79a128,128,0,0,0,35.17-60.79Z"/><path class="cls-2" d="M159.14,206l-.11.13c-.8.87-1.64,1.69-2.49,2.49-1.81,1.87-3.57,3.79-5.26,5.76q-2.82,3.81-5.89,7.4A128.29,128.29,0,0,1,84,261.47a133.45,133.45,0,0,0,35.61,4.73h.8c1.33,0,2.63,0,3.94-.08A118.65,118.65,0,0,0,162,259.35a96.45,96.45,0,0,0,32.93-19.9,99.46,99.46,0,0,0,22.65-31.57,121.82,121.82,0,0,0,10.09-36.53,127.65,127.65,0,0,0-56.53,24.38A130.2,130.2,0,0,0,159.14,206Z"/><path class="cls-2" d="M120.43,221.26q-18.2,0-30.88-7A58.93,58.93,0,0,1,69,195.53a81,81,0,0,1-11.49-26.25,124.79,124.79,0,0,1-3.6-30A134.1,134.1,0,0,1,57.47,108a87.94,87.94,0,0,1,5.37-15.83c.44-1,.89-1.91,1.36-2.85,0,0,0-.1.08-.16.44-.87.89-1.74,1.35-2.59l.45-.78c.37-.65.74-1.31,1.13-2,.57-.93,1.15-1.86,1.75-2.77A58.35,58.35,0,0,1,89.55,62.23q12.69-7,30.88-7l1.68,0h0a56.17,56.17,0,0,1,33.66,12.32,54.5,54.5,0,0,1,12,13.55h0l.09.16a34.75,34.75,0,0,0,29.48,16.83h28.76q-2.42-21.27-11.67-37.75a95.44,95.44,0,0,0-10.63-15.27,89.47,89.47,0,0,0-12.87-12.35,103.84,103.84,0,0,0-32.25-17,123.44,123.44,0,0,0-38.26-5.83q-28.14,0-50.61,10A112.83,112.83,0,0,0,49.24,31.65h-.06l-1,.79-1.24.94c-.87.66-1.73,1.34-2.57,2l-1.2,1c-.86.73-1.7,1.47-2.54,2.22l-1.05.93c-1.15,1.07-2.29,2.15-3.4,3.27-.08.08-.17.15-.25.24q-2,2.07-4,4.27c-1.06,1.2-2.08,2.43-3.08,3.67-.35.43-.7.85-1,1.28h0A124.31,124.31,0,0,0,8.23,88.31,153.06,153.06,0,0,0,0,139.26a148,148,0,0,0,8.23,49.92A119.35,119.35,0,0,0,31.91,229.5a104.8,104.8,0,0,0,17.66,15.62,127.63,127.63,0,0,0,73-23.9C121.84,221.24,121.15,221.26,120.43,221.26Z"/><path class="cls-2" d="M299.86,191.56a32.11,32.11,0,0,1,9.26-4.62,87.33,87.33,0,0,1,10.81-2.75c3.88-.69,7.78-1.25,11.67-1.71a213.84,213.84,0,0,0,22.82-4.91l.22-.07c14.69-4,33-10.66,44.18-20.87A25.37,25.37,0,0,0,409,136.34V129a51,51,0,0,0-2.81-17.68,33.49,33.49,0,0,0-4.39-8.25,49.61,49.61,0,0,0-18.54-15.27,82.93,82.93,0,0,0-25-7.37q-6.87-.95-13.63-1.41-1.69-.12-3.39-.21-5.07-.27-10.08-.27c-2.41,0-4.84.06-7.25.18a151.77,151.77,0,0,0-22,2.73,83.66,83.66,0,0,0-26.24,9.79,58.47,58.47,0,0,0-19.21,18.18q-7.56,11.33-8.58,28.49h30.65a24.55,24.55,0,0,0,21.68-13.4,21,21,0,0,1,6-7.19q7.21-5.4,19.14-6.07c1.1-.07,2.21-.1,3.37-.1,2.17,0,4.29.08,6.31.21s4.07.36,6,.64a27.33,27.33,0,0,1,10,3.43,18.83,18.83,0,0,1,6.86,7.21,16.43,16.43,0,0,1,1.12,2.51,30.21,30.21,0,0,1,1.45,10c.22,5-1.27,8.87-4.46,11.5s-7.56,4.64-13,6a132.15,132.15,0,0,1-18.87,3.1q-10.64,1-21.62,2.73a205.4,205.4,0,0,0-21.78,4.64,65,65,0,0,0-13.07,5,56.54,56.54,0,0,0-6.15,3.69,44.69,44.69,0,0,0-13.73,15.62,36.82,36.82,0,0,0-1.85,4l0,0c-.25.65-.5,1.33-.73,2a1.83,1.83,0,0,1-.08.25c-.2.63-.4,1.28-.58,1.93l-.09.33c-.18.67-.35,1.35-.5,2l-.06.26c-.33,1.5-.6,3.07-.81,4.69-.12,1-.23,1.93-.31,2.92q-.27,3.08-.27,6.39,0,13.74,4.62,23.69a44.84,44.84,0,0,0,12.88,16.47,54.41,54.41,0,0,0,19.21,9.61,86.7,86.7,0,0,0,21.11,3l2.42,0c2.07,0,4.12-.06,6.16-.16l2.05-.13q3.19-.24,6.36-.65A111.31,111.31,0,0,0,335,260.37a63.46,63.46,0,0,0,27.34-16.69l.08-.08,0,0a1.36,1.36,0,0,0,0,.2,25.62,25.62,0,0,0,23.91,16.95H409V173.4A127.43,127.43,0,0,0,370,190.88l-.74.5A25.63,25.63,0,0,0,358.48,209c.06-.51.13-1,.22-1.49a38.39,38.39,0,0,1-3.77,9.16,32,32,0,0,1-11.67,11.49,32.93,32.93,0,0,1-12.57,4.14c-1.49.22-3,.39-4.69.5s-3.37.17-5.17.17h-.11c-.83,0-1.66,0-2.49-.06-.54,0-1.06-.05-1.59-.09a.23.23,0,0,1-.14,0c-.38,0-.76,0-1.13-.07l-1.08-.1-1.88-.24c-.46-.06-.92-.12-1.38-.21l-1.38-.24a27.33,27.33,0,0,1-9.61-3.6,18.33,18.33,0,0,1-6.52-7.05,22.73,22.73,0,0,1-2.4-11,23.69,23.69,0,0,1,2.4-11.33h0A22.33,22.33,0,0,1,299.86,191.56Z"/></g></g></svg>