<svg id="Layer_1" data-name="Layer 1" xmlns="http://www.w3.org/2000/svg" viewBox="0 0 1131.69 268.68"><defs><style>.cls-1{fill:#3cf;}.cls-2{fill:#919d9d;}</style></defs><title>CanTools </title><path class="cls-1" d="M245.83,194l0,0Z"/><path class="cls-1" d="M245,196.25c0-.09.06-.17.08-.25C245.08,196.08,245.05,196.16,245,196.25Z"/><path class="cls-1" d="M243.79,200.8l.06-.26Z"/><path class="cls-1" d="M244.35,198.51l.09-.34Z"/><path class="cls-1" d="M244.44,198.17c.18-.65.38-1.29.58-1.92C244.82,196.88,244.62,197.52,244.44,198.17Z"/><path class="cls-1" d="M243.85,200.54c.15-.69.32-1.37.5-2C244.17,199.17,244,199.85,243.85,200.54Z"/><path class="cls-1" d="M243,205.5h0c.21-1.62.48-3.18.81-4.69C243.46,202.31,243.18,203.88,243,205.5Z"/><path class="cls-1" d="M245.1,196c.23-.69.48-1.36.73-2C245.58,194.64,245.33,195.31,245.1,196Z"/><path class="cls-1" d="M914.09,125.55l-.09.52Z"/><path class="cls-1" d="M914.44,121.35a25.51,25.51,0,0,1-.35,4.2A23.27,23.27,0,0,0,914.44,121.35Z"/><path class="cls-1" d="M914,126.07c0,.06,0,.12,0,.18S914,126.13,914,126.07Z"/><path class="cls-1" d="M587.91,101.07q-7.21-9.42-19.73-14.75T536.1,81a69.47,69.47,0,0,0-30.2,7,52,52,0,0,0-12.45,8.31,56.1,56.1,0,0,0-12.3,16.4,128.85,128.85,0,0,1-46.61,50.69V237.5a25.69,25.69,0,0,0,25.69,25.69h23v-93q0-27.11,8.92-38.94T521,119.43q17.5,0,24.36,10.81T552.22,163v75.12a25.06,25.06,0,0,0,25.06,25.06h23.66V154.08a143.29,143.29,0,0,0-2.91-30A57.32,57.32,0,0,0,587.91,101.07Z"/><path class="cls-1" d="M434.54,85.81V146.6a128.13,128.13,0,0,0,35.17-60.79Z"/><path class="cls-1" d="M159.14,208.51l-.11.13c-.8.87-1.64,1.69-2.49,2.48-1.81,1.87-3.57,3.79-5.26,5.77q-2.82,3.81-5.89,7.4A128.2,128.2,0,0,1,84,263.94a133.05,133.05,0,0,0,35.61,4.73h.8c1.33,0,2.63,0,3.94-.07A118.93,118.93,0,0,0,162,261.82a96.29,96.29,0,0,0,32.93-19.9,99.46,99.46,0,0,0,22.65-31.57,121.66,121.66,0,0,0,10.09-36.53,127.65,127.65,0,0,0-56.53,24.38A130.31,130.31,0,0,0,159.14,208.51Z"/><path class="cls-1" d="M120.43,223.73q-18.2,0-30.88-7A58.83,58.83,0,0,1,69,198a81,81,0,0,1-11.49-26.25,124.67,124.67,0,0,1-3.6-30,134.16,134.16,0,0,1,3.6-31.22,87.84,87.84,0,0,1,5.37-15.82c.44-1,.89-1.92,1.36-2.85a.8.8,0,0,1,.08-.16c.44-.88.89-1.74,1.35-2.59.15-.27.3-.52.45-.78.37-.66.74-1.32,1.13-2,.57-.94,1.15-1.87,1.75-2.77A58.35,58.35,0,0,1,89.55,64.71q12.69-7,30.88-7c.56,0,1.12,0,1.68,0h0A56.07,56.07,0,0,1,155.77,70a54.55,54.55,0,0,1,12,13.56h0l.09.15a34.75,34.75,0,0,0,29.48,16.83h28.76q-2.42-21.27-11.67-37.74a95,95,0,0,0-10.63-15.27A88.94,88.94,0,0,0,190.94,35.2a104.07,104.07,0,0,0-32.25-17,123.74,123.74,0,0,0-38.26-5.83q-28.14,0-50.61,9.95A112.83,112.83,0,0,0,49.24,34.12h-.06c-.35.25-.69.52-1,.78l-1.24.94c-.87.66-1.73,1.34-2.57,2l-1.2,1c-.86.72-1.7,1.46-2.54,2.21L39.54,42c-1.15,1.06-2.29,2.14-3.4,3.26l-.25.24c-1.36,1.38-2.69,2.81-4,4.27-1.06,1.2-2.08,2.43-3.08,3.68-.35.42-.7.85-1,1.28h0a124.12,124.12,0,0,0-19.56,36A153.1,153.1,0,0,0,0,141.73a147.9,147.9,0,0,0,8.23,49.92A119.25,119.25,0,0,0,31.91,232a103.92,103.92,0,0,0,17.66,15.62,127.49,127.49,0,0,0,73-23.9C121.84,223.71,121.15,223.73,120.43,223.73Z"/><path class="cls-1" d="M299.86,194a32.13,32.13,0,0,1,9.26-4.63,89.14,89.14,0,0,1,10.81-2.75c3.88-.68,7.78-1.25,11.67-1.71A213.84,213.84,0,0,0,354.42,180l.22-.06c14.69-4,33-10.67,44.18-20.88A25.36,25.36,0,0,0,409,138.81v-7.37a51,51,0,0,0-2.81-17.68,33.67,33.67,0,0,0-4.39-8.25,49.59,49.59,0,0,0-18.54-15.26,82.94,82.94,0,0,0-25-7.38c-4.58-.62-9.13-1.1-13.63-1.41q-1.69-.12-3.39-.21Q336.14,81,331.13,81c-2.41,0-4.84.06-7.25.18a150.41,150.41,0,0,0-22,2.74,83.4,83.4,0,0,0-26.24,9.78,58.58,58.58,0,0,0-19.21,18.18q-7.56,11.34-8.58,28.49h0v0h30.64A24.57,24.57,0,0,0,300.21,127a21,21,0,0,1,6-7.2q7.21-5.38,19.14-6.06c1.1-.08,2.21-.11,3.37-.11,2.17,0,4.29.08,6.31.21s4.07.36,6,.64a27.33,27.33,0,0,1,10,3.44,18.69,18.69,0,0,1,6.86,7.21,15.61,15.61,0,0,1,1.12,2.51,30.17,30.17,0,0,1,1.45,10c.22,5-1.27,8.86-4.46,11.49s-7.56,4.64-13,6a133.67,133.67,0,0,1-18.87,3.09c-7.09.68-14.3,1.61-21.62,2.74a205.35,205.35,0,0,0-21.78,4.63,65,65,0,0,0-13.07,5.05,58.25,58.25,0,0,0-6.15,3.7,44.65,44.65,0,0,0-13.73,15.61,37,37,0,0,0-1.85,4l0,0c-.25.66-.5,1.33-.73,2,0,.08,0,.16-.08.25-.2.63-.4,1.27-.58,1.92l-.09.34c-.18.66-.35,1.34-.5,2l-.06.26c-.33,1.51-.6,3.07-.81,4.69-.12,1-.23,1.93-.31,2.93-.18,2.05-.27,4.17-.27,6.39q0,13.74,4.62,23.68A45,45,0,0,0,259.9,255a54.39,54.39,0,0,0,19.21,9.6,86.22,86.22,0,0,0,21.11,3.05c.81,0,1.61,0,2.42,0q3.11,0,6.16-.17l2.05-.13q3.19-.23,6.36-.65A111.28,111.28,0,0,0,335,262.85a63.57,63.57,0,0,0,27.34-16.7l.08-.08,0,0a1.49,1.49,0,0,0,0,.21,25.63,25.63,0,0,0,23.91,16.95H409V175.87A127.43,127.43,0,0,0,370,193.35l-.74.5a25.63,25.63,0,0,0-10.74,17.58c.06-.5.13-1,.22-1.49a38.39,38.39,0,0,1-3.77,9.16,32,32,0,0,1-11.67,11.5,33.1,33.1,0,0,1-12.57,4.14c-1.49.22-3,.39-4.69.5s-3.37.16-5.17.16h-.11c-.83,0-1.66,0-2.49-.06-.54,0-1.06,0-1.59-.09a.33.33,0,0,1-.14,0l-1.13-.08c-.36,0-.72,0-1.08-.1l-1.88-.24c-.46-.06-.92-.12-1.38-.21l-1.38-.24a27.32,27.32,0,0,1-9.61-3.59,18.4,18.4,0,0,1-6.52-7.05,22.76,22.76,0,0,1-2.4-11,23.66,23.66,0,0,1,2.4-11.33v0A22.2,22.2,0,0,1,299.86,194Z"/><path class="cls-2" d="M665.72,26.42v138.3H648V26.42H597.34V9.32H716.55v17.1Z"/><path class="cls-2" d="M830.22,106.12c0,35.07-24.64,59.27-59.27,59.27s-59.28-24.2-59.28-59.27c0-34.86,24.64-58.83,59.28-58.83S830.22,71.26,830.22,106.12ZM729,106.34c0,25.75,17.54,43.51,42,43.51s41.95-17.76,41.95-43.51c0-25.53-17.53-43.29-41.95-43.29S729,80.81,729,106.34Z"/><path class="cls-2" d="M967.42,106.12c0,35.07-24.65,59.27-59.28,59.27s-59.27-24.2-59.27-59.27c0-34.86,24.64-58.83,59.27-58.83S967.42,71.26,967.42,106.12Zm-101.24.22c0,25.75,17.54,43.51,42,43.51s42-17.76,42-43.51c0-25.53-17.54-43.29-42-43.29S866.18,80.81,866.18,106.34Z"/><path class="cls-2" d="M998.94,164.72V0h17.31V164.72Z"/><path class="cls-2" d="M1127.92,57.72l-6.66,13.76c-9.1-5.77-20.87-9.54-31.75-9.54-13.09,0-23.08,4.66-23.08,15.54,0,26,65.26,12.65,65.26,54.61,0,23.09-20.42,33.3-42.84,33.3-16.65,0-33.75-5.77-44.85-16.43l6.66-13.1c10,9.33,25.09,14.88,38.85,14.88s24.87-5.11,25.09-16.65c.67-28.2-64.82-13.77-64.6-55.28,0-22.42,19.31-31.75,40.62-31.75C1104.61,47.06,1118.15,51.06,1127.92,57.72Z"/></svg>